<?xml version="1.0" encoding="UTF-8"?><svg id="a" xmlns="http://www.w3.org/2000/svg" xmlns:xlink="http://www.w3.org/1999/xlink" viewBox="0 0 1305.26 2876.64"><defs><style>.d,.e,.f,.g,.h,.i,.j,.k,.l,.m,.n,.o{fill:none;}.e{stroke:#232222;}.e,.f,.i,.j{stroke-width:3.35px;}.e,.f,.i,.k,.l,.o{stroke-linecap:round;stroke-linejoin:round;}.f{stroke:#175c4c;}.g{stroke:#175c4c;}.g,.h{stroke-width:3px;}.g,.h,.j,.m,.n{stroke-miterlimit:10;}.h{stroke:#175c4c;}.i{stroke:#175c4c;}.p{fill:#175c4c;}.q{fill:#f51c8c;}.r{fill:#fa7441;}.s{fill:#175c4c;}.t{fill:#030131;}.u{fill:#e9f5ff;}.v{fill:#ff3b97;}.w{fill:#e9720d;}.x{fill:#e59370;}.y{fill:#175c4c;}.a`,.aa{fill:#fff;}.ab{fill:#ffeded;}.ac{fill:#175c4c;}.ad{fill:#ffecf0;}.ae{fill:#ee7460;}.af{fill:#ff1161;}.ag{fill:#175c4c;}.ah{fill:#175c4c;}.ai{fill:#175c4c;}.aj{fill:#e76b56;}.ak{fill:#175c4c;}.al{fill:#ff483e;}.am{fill:#ff3a98;}.an{fill:#f88;}.ao{fill:#ff9490;}.ap,.aq{fill:#175c4c;}.ar{fill:#ff6869;}.as{fill:#175c4c;}.at,.au{fill:#9992ff;}.av{fill:#175c4c;}.aw{fill:#8f5300;}.ax{fill:#175c4c;}.ay{fill:#cf5d4c;}.b`{fill:#bee9e9;}.ba{fill:#175c4c;}.bb{fill:#c15c37;}.bc{fill:#c3c1ee;}.bd{fill:#d85145;}.be{fill:#d67c61;}.bf{fill:#d4e1ff;}.bg{fill:#d9d7ff;}.bh{fill:#175c4c;}.bi,.bj{fill:#175c4c;}.bk{fill:#175c4c;}.bl{fill:#211e4d;}.bm{fill:#211e4c;}.bn,.bo{fill:#175c4c;}.bp,.bq{fill:#202121;}.br{fill:#175c4c;}.bs{fill:#232323;}.bt{fill:#4250ef;}.bu{fill:#175c4c;}.bv{fill:#080156;}.bw{fill:#1a1a1a;}.bx{fill:#6f69c9;}.by,.c`{fill:#30a09f;}.ca{fill:#3c2f2d;}.cb{fill:#7772be;}.cc{fill:#4f35b4;}.j,.k{stroke:#175c4c;}.k,.l{stroke-width:2px;}.l{stroke:#e96d3f;}.m{stroke:#d85145;stroke-width:1.59px;}.c`,.cd,.ce,.bo,.bq,.bj,.aq,.au,.cf,.cg,.aa,.ch,.ci,.cj{fill-rule:evenodd;}.cd{fill:#9b5340;}.ce{fill:#211e4b;}.cf{fill:#c1e9ec;}.cg{fill:#f1b18e;}.ch{fill:#fceede;}.ci{fill:#fbe0c9;}.cj{fill:#000100;}.ck{clip-path:url(#c);}.cl{clip-path:url(#b);}.cm{fill:#e8f1ff;opacity:0;}.n{stroke:#396dee;stroke-width:67px;}.cn{fill:#f0eacd;opacity:.33;}.co{fill:#f7e39b;opacity:.67;}.o{stroke:#175c4c;stroke-width:2.09px;}</style><clipPath id="b"><circle class="d" cx="797.36" cy="459.35" r="266.4"/></clipPath><clipPath id="c"><rect class="d" x="117.89" y="1003.45" width="261.24" height="281.68"/></clipPath></defs><path class="n" d="M803.39,492.99s-425.99,136.21-383.47,627.58,451.44,563.32,556.33,639.76c205.09,149.46,210.58,587.78-483,634.5"/><g><circle class="bg" cx="493.3" cy="2341.8" r="242.53"/><g><path class="bo" d="M687.05,2411.74s.1,10.74-2.77,13.17-3.94,7.77-19.69,7.77-92.43-.47-92.43-.47c0,0-19.01-.44-19.26-19.23l31.13-.91,33.64-.12,69.39-.2Z"/><path class="bo" d="M686.05,2210.63s2.72-16.7-18.83-16.43c-21.55,.27-105.66,.58-105.66,.58,0,0-8.2,.66-9.84,16.52l39.54,.32,94.8-.98Z"/><g><path class="bo" d="M687.14,2214.78c-.02-1.05,.24-3.89-.19-7.17-.45-3.4-1.63-7.24-4.53-10.12-2.48-2.47-6.22-4.25-11.88-4.39-21.32-.53-69.97-.43-103.24,.38-5.09,.13-9.17,1.4-11.99,4.56-2.78,3.11-4.35,8.12-4.33,15.86,0,2.43-.55,29.09-.38,40.08,.46,29.18,.34,124.86,.41,149.89,.03,10.62,2.69,17.46,6.35,21.85,5.55,6.66,13.44,7.72,18.37,7.62,15.03-.31,62.31,.91,87.55,.36,9.66-.21,15.67-1.52,19.3-5.22,3.63-3.7,4.97-9.88,5.06-20.05,.16-17.24-.03-170.45-.51-193.66Zm-130.59-15.63c2.53-2.84,6.22-3.9,10.79-4.01,33.25-.82,81.85-.92,103.16-.38,5.11,.13,8.51,1.68,10.75,3.91,2.61,2.6,3.65,6.08,4.05,9.16,.11,.81,.17,1.59,.2,2.32-.11-.06-.24-.09-.37-.09-27.33-.22-89.63,.88-132.44,1.23,.29-5.73,1.6-9.61,3.85-12.13Zm129.44,209.27c-.09,9.57-1.17,15.42-4.59,18.9-3.41,3.48-9.09,4.53-18.15,4.73-25.24,.55-72.52-.67-87.55-.36-4.57,.1-11.91-.85-17.06-7.02-3.48-4.17-5.93-10.69-5.97-20.79-.08-25.03,.05-120.72-.41-149.91-.17-10.99,.38-37.63,.38-40.06,0-.33,0-.65,0-.97,42.8-.35,105.14-1.45,132.48-1.23,.15,0,.3-.04,.42-.11,0,1.48-.07,2.63-.06,3.21,.48,23.2,.67,176.37,.51,193.61Z"/><g><path class="c`" d="M567.85,2205c-.22-16.17-.08-45.86-.67-55.26-.29-4.56-2.3-6.36-6.63-6.87-3.64-.43-29.88-.66-40.51-.06-5.48,.31-5.54,5.47-5.85,7.41-1.13,7.1-.42,26.8,.01,35.53,.07,1.44-.13,8.74,7.41,9.22,6.55,.41,24.02,.14,28.73,.2,3.3,.04,17.58,16.17,17.5,9.83h0Z"/><path class="cf" d="M536.51,2155.6c6.97-.33,12.37,3.4,15.05,8.14,1.77,3.13,2.35,6.71,1.37,9.82-1.05,3.33-3.89,6.11-8.9,7.27-9.54,2.21-17.06-4.93-16.47-12.84,.28-3.72,2.68-7.56,7.16-8.71,7.07-1.8,13.07,2.99,14.82,8.18,1.14,3.39,.46,6.95-3.02,8.88-3.72,2.06-6.94,2.19-9.46,1.21-3.74-1.47-5.89-5.38-5.69-8.88,.14-2.46,1.46-4.71,4.22-5.73,3.68-1.35,6.88,.28,8.65,2.65,1.17,1.56,1.72,3.45,1.36,5.01-.49,2.09-2.34,3.36-4.33,3.6-1.99,.25-4.13-.53-5.19-2.57-.59-1.13-.39-2.85,.29-4.06,.39-.69,.94-1.22,1.62-1.34,.45-.08,.95,.02,1.49,.35,1.39,.84,1.53,2.06,.96,2.62-.21,.21-.51,.3-.86,.22-.21-.05-.42,.08-.46,.29-.05,.21,.08,.42,.29,.47,1.45,.33,2.53-1.06,1.97-2.58-.21-.58-.68-1.19-1.5-1.68-.73-.45-1.42-.56-2.03-.45-.9,.16-1.65,.82-2.16,1.73-.81,1.44-1,3.47-.31,4.8,1.22,2.35,3.67,3.27,5.97,2.98,2.3-.28,4.42-1.77,4.99-4.2,.41-1.76-.18-3.89-1.49-5.65-1.95-2.62-5.47-4.41-9.54-2.91-3.1,1.14-4.57,3.66-4.73,6.41-.22,3.8,2.12,8.05,6.18,9.64,2.69,1.05,6.14,.96,10.12-1.25,3.85-2.13,4.64-6.06,3.38-9.81-1.86-5.51-8.24-10.6-15.75-8.68-4.84,1.24-7.44,5.38-7.74,9.4-.63,8.39,7.3,16,17.41,13.66,5.35-1.24,8.35-4.24,9.46-7.79,2.59-8.23-5-19.54-17.19-18.96-.21,0-.38,.19-.37,.41,.01,.21,.19,.38,.41,.37h0Z"/></g><g><g><path class="c`" d="M584.47,2315.42c-.15,.74-2.51,20.02-3.37,30.87-1.1,13.96-3.25,62.4-3.15,65.21,.03,.86,34.66,.56,35.75,.15,.74-.28,2.16-30.15,2.38-32.86,.02-.21,0-1.94,.29-1.99,.41-.07,6.95,33.66,8.05,34.56,.72,.59,28.06,.25,36.41-.12,.76-.03,.41-39.19-.7-53.98-1.99-26.39-7.42-34.25-11.24-41.81-.28-.55-10.06,.44-16.76,1.03-14.42,1.27-25.92,1.34-47.64-1.07h0Z"/><path class="ch" d="M583.27,2333.75c2.16-.19,4.33-.86,6.17-2.02,4.33-2.75,6.03-8.51,6.03-13.44,0-.22-.18-.4-.4-.4s-.4,.18-.4,.4c0,4.67-1.55,10.16-5.66,12.77-1.73,1.1-3.77,1.72-5.81,1.9-.22,.02-.38,.21-.36,.43,.02,.22,.21,.38,.43,.36h0Z"/><path class="ch" d="M616.11,2351.8c1.59-1.79,3.02-4.22,2.85-7-.08-1.37-1.73-16.65-2.77-25.55-.03-.22-.22-.38-.44-.35-.22,.03-.38,.22-.35,.44,1.03,8.89,2.68,24.14,2.77,25.51,.15,2.55-1.18,4.78-2.65,6.42-1.34,1.51-2.8,2.52-3.36,2.83-1.21-8.19-2.37-17.9-3.54-34.76-.02-.22-.21-.39-.43-.37-.22,.02-.39,.21-.37,.43,1.38,19.8,2.73,29.76,4.18,38.96,.68,4.29,1.53,8.55,2.34,12.81,.3,1.6,.61,3.2,.9,4.8,.04,.22,.25,.36,.46,.32,.22-.04,.36-.25,.32-.46-.29-1.61-.6-3.21-.9-4.81-.81-4.26-1.66-8.5-2.34-12.79-.17-1.09-.34-2.18-.51-3.31,.02,0,.04-.01,.06-.02,.45-.2,2.19-1.33,3.78-3.1Z"/><path class="ch" d="M645.13,2317.45c-.09-.2-.33-.29-.53-.19-.2,.09-.29,.33-.19,.53,1.87,4.03,3.42,8.28,4.7,12.64-10.55,3.1-14.01-6.69-15.38-11.6-.06-.21-.28-.34-.49-.28-.21,.06-.34,.28-.28,.49,1.45,5.2,5.21,15.43,16.37,12.15,6.65,23.2,5.72,61.31,5.39,79.22,0,.22,.17,.4,.39,.41,.22,0,.4-.17,.41-.39,.41-21.58,1.53-67.23-10.39-92.98Z"/></g><g><path class="ce" d="M582.51,2180.48c-.2,1.95-1.54,4.72-1,6.81,.99,3.83,3.62,4.01,3.38,6.18-.6,5.44,5.39,7.76,5.06,5.35-.81-5.9-1.13-16.6-1.42-16.64-.25-.03-5.86-3.25-6.02-1.69h0Z"/><path class="ci" d="M586.91,2188.83c.29,.02,1.76,.03,2.29,.02,.16,0,.29,.13,.29,.28,0,.16-.13,.29-.28,.29-.54,0-2.05,0-2.34-.03-.14-.01-.21-.07-.22-.09-.07-.07-.09-.15-.09-.22,0-.16,.14-.28,.3-.27,.02,0,.04,0,.06,0h0Z"/><path class="cg" d="M624.19,2188.33c1.5-4.01,2.38-7.89,2.43-9.92,.07-2.99-.84-7.09-4.99-10.69-2.32-2.01-6.3-4.21-14.03-3.73-5.67,.35-12.84,3.68-16.42,8.21-1.2,1.52-2.94,3.86-2.66,12.8,.12,4.01,.82,10.53,1.26,13.24,.73,4.49,1.64,7.35,4.89,10.43,.69,.65,2.19,1.6,3.8,2.11,1.11,.35,1.2,.38,1.21,.38,.11,.06,.24,9.24,.2,9.31-.07,.1-8.59,1.46-8.68,1.94-.88,4.83,3.9,15.19,15.65,14.85,10.79-.31,17.56-10.61,18.69-17.71,.06-.36-.1-.73-1.02-.86-2.29-.33-3.66-.36-3.57-.41,.13-.08-.27-17.18,.13-20.52,.37-3.07,2.06-6.58,3.13-9.44h0Z"/><path class="cj" d="M600.53,2210.64c1.64,.11,2.69-.15,3.52-.37,3.11-.85,4.68-1.67,6.83-4.01,.11-.12,.29-.12,.4-.02,.12,.11,.12,.29,.02,.4-2.24,2.43-3.86,3.29-7.09,4.17-.88,.24-1.99,.51-3.71,.39-.16-.01-.28-.15-.26-.3,.01-.16,.15-.28,.3-.26h0Z"/><g><path class="ce" d="M599.91,2185.73c-.53-.02-1.03-.07-1.43-.39-.53-.43-.58-1.81,.05-2.07,1.08-.45,3.24-.21,4.33-.02,1.83,.32,3.92,.84,5.4,2.01,.66,.52,.91,1.07,.74,1.71-.07,.28-.33,.64-.82,.67-.48,.03-1.02-.28-1.43-.46-.93-.4-1.88-.8-2.88-1.04-1.29-.3-2.65-.37-3.99-.42h0Z"/><path class="ce" d="M588.65,2187.65s-.05-.52-.09-1.27c-.05-.82-.04-1.07-.04-1.07,.96-.71,2.64-1.23,3.76-1.44,1.03-.19,1.49,.1,1.7,.48,.27,.5,.15,1.02-.15,1.44-.28,.39-1.02,.54-1.44,.68-1.02,.37-2.57,.6-3.74,1.17h0Z"/><path class="cj" d="M595.44,2190.11c-.16,1.51-.31,2.29-.77,4.45-.07,.32-.22,.75-.27,1.15-.03,.21-.03,.42,.06,.58,.09,.18,.29,.28,.54,.36,.31,.09,.7,.13,1.11,.13,.77,0,1.63-.14,2.29-.32,.41-.11,.73-.24,.9-.37,.12-.1,.3-.08,.4,.05,.1,.12,.08,.3-.05,.4-.18,.14-.51,.29-.92,.42-.91,.28-2.27,.48-3.29,.36-.72-.08-1.27-.34-1.49-.76-.13-.25-.16-.57-.12-.91,.05-.42,.2-.87,.27-1.2,.45-2.13,.6-2.9,.76-4.39,.02-.16,.16-.27,.31-.25,.16,.02,.27,.16,.25,.31h0Z"/><path class="cd" d="M594.69,2202.4c-.09-.58-.2-1.5,1.26-2.88,.7-.66,2.2-1,3.07-1.03,.77-.03,2.33,.23,2.92,.71,.36,.29,.84,2.67-1.16,4.51-.97,.88-2.57,1.17-3.78,.91-1.04-.22-2.13-1.09-2.31-2.22h0Z"/><path class="cj" d="M594.33,2201.86c1.48,0,2.64-.24,3.29-.42,2.36-.62,3.96-1.74,4.9-3.33,.08-.14,.25-.18,.39-.1,.14,.08,.18,.25,.1,.39-1.01,1.71-2.72,2.93-5.25,3.6-.68,.18-1.89,.44-3.43,.43-.16,0-.28-.13-.28-.29,0-.16,.13-.28,.29-.28h0Z"/><path class="cj" d="M591.25,2188.64c.59,0,1.08,.5,1.08,1.12s-.48,1.12-1.08,1.12-1.08-.5-1.08-1.12,.48-1.12,1.08-1.12h0Z"/><path class="cj" d="M601.99,2188c.71,0,1.29,.58,1.29,1.3s-.58,1.3-1.29,1.3-1.29-.58-1.29-1.3,.58-1.3,1.29-1.3h0Z"/><path class="cj" d="M605.34,2190.22c-.55-.91-1.34-1.48-2.09-1.74-1.55-.53-2.45-.31-3.84,.46-.14,.08-.31,.03-.39-.11-.08-.14-.03-.31,.11-.39,1.55-.86,2.55-1.09,4.29-.5,.86,.29,1.76,.94,2.39,1.98,.08,.13,.04,.31-.09,.39-.13,.08-.31,.04-.39-.09h0Z"/><path class="cj" d="M593.51,2189.35c-.4-.28-1-.5-1.5-.56-.57-.06-1.17-.03-1.64,.31-.3,.23-.54,.59-.68,1.13-.04,.15-.2,.24-.35,.2-.15-.04-.24-.2-.2-.35,.18-.7,.5-1.15,.89-1.44,.58-.43,1.32-.5,2.04-.42,.6,.07,1.3,.33,1.77,.66,.13,.09,.16,.27,.07,.4-.09,.13-.27,.16-.4,.07h0Z"/></g><path class="ce" d="M599.43,2163.04c-1.5,.52-9.16-3.41-10.85,2.26-.61,2.07-4.97,1.78-5.37,4.89-.39,3.11-2.2,3.67-2.85,5.64-.79,2.41,1.87,4.7,1.66,6.98-.19,2.02,6.61,4.65,6.61,4.61-.12-2.11-.14-4.24-.13-4.28,2.96-8.23,5.74-10.1,8.68-11.97,.08-.05,2.89,5.59,5.97,7.31,2.54,1.42,6.04,.74,7.71,3.76,3.4,6.17,4.13,6.51,7.2,5.76,.09-.02,3.47,6.77,2.96,9.37-.39,1.99-5.41,12.26-.19,12.64,3.5,.25,4.11,1.76,6.34,1.6,4.1-.29,4.87-3.47,6.5-5.6,1.58-2.08,6.21-1.97,5.46-7.43-.73-5.32,1.68-5.12,1.01-8.25-.44-2.06-2.32-2.95-2.6-3.96-.36-1.27,1.12-2.51,.02-5-1.16-2.63-3.61-1.8-3.62-4.76,0-2.2,.56-3.63-1.58-5.5-2.08-1.83-4.23,.06-6-3.82-1.42-3.12-2.98-5.56-7.86-5.44-4.92,.12-5.85-3.84-10.85-3.07-4.02,.62-5.78,3.41-8.22,4.25h0Z"/><path class="ci" d="M606.55,2187.41c1.03-.03,11.65,.65,15.03,.65,.16,0,.29,.13,.29,.29s-.13,.29-.29,.29c-3.37,0-13.99-.68-15.02-.65-.16,0-.29-.12-.29-.28,0-.16,.12-.29,.28-.29h0Z"/><g><path class="cg" d="M615.85,2191.71c-.09-.02,.69-3.83,4.42-4.91,1.71-.5,4.53-.24,5.64,1.45,.57,.86,.61,2.18,.44,3.15-.39,2.22-1.6,3.52-3.41,4.84-.51,.38-1.14,.75-1.86,1.17-.2,.12-4.95-5.07-5.23-5.7h0Z"/><path class="cj" d="M619.04,2191.59c.13-.43,.4-.82,.71-1.14,1.01-1.03,2.51-1.36,4.03-.65,.14,.07,.2,.24,.14,.38-.07,.14-.24,.2-.38,.14-.9-.42-1.79-.41-2.54-.07,.06,.2,.2,.63,.45,1.07,.34,.62,.87,1.17,1.66,1.29,.16,.02,.26,.17,.24,.32-.02,.16-.17,.26-.33,.24-.97-.15-1.65-.8-2.07-1.57-.22-.39-.36-.78-.45-1.05-.12,.09-.24,.19-.35,.3-.25,.25-.47,.57-.58,.91-.05,.15-.21,.23-.36,.19-.15-.05-.23-.21-.19-.36Z"/></g><g><path class="ci" d="M598.92,2185.59c-.5,.42-1.11,1.3-1.34,1.89-.77,1.95-.51,4.11,.92,5.63,1.74,1.84,4.57,1.75,6.5,.33,.49-.36,.92-.8,1.27-1.33,.75-1.15,1.03-3.06,.62-4.33-.97-3.07-4.88-4.8-7.97-2.18h0Zm.37,.44c2.73-2.31,6.2-.8,7.06,1.92,.36,1.13,.1,2.83-.56,3.85-.3,.47-.69,.86-1.13,1.18-1.7,1.25-4.21,1.36-5.75-.26-1.28-1.35-1.49-3.28-.81-5.02,.2-.52,.74-1.29,1.18-1.66h0Z"/><path class="ci" d="M593.96,2188.78c.88-.81,2.4-.95,3.52-.59,.15,.05,.23,.21,.18,.36-.05,.15-.21,.23-.36,.18-.93-.3-2.22-.22-2.95,.46-.12,.11-.3,.1-.4-.02-.11-.12-.1-.3,.02-.4h0Z"/><path class="ci" d="M587.5,2186.55c-.45,.36-.95,1.2-1.15,1.74-.64,1.78-.42,3.76,.81,5.16,1.51,1.72,3.87,1.71,5.42,.29,1.65-1.52,1.94-3.85,1.59-5.01-.51-1.7-1.76-2.99-3.3-3.24-1.03-.17-2.2,.12-3.38,1.07h0Zm.36,.44c1.02-.83,2.03-1.1,2.93-.95,1.34,.22,2.41,1.36,2.85,2.84,.31,1.03,.03,3.09-1.43,4.43-1.32,1.21-3.33,1.22-4.61-.24-1.09-1.24-1.27-3-.7-4.59,.17-.46,.59-1.18,.97-1.49h0Z"/></g></g><g><path class="cg" d="M504.63,2248.94c-.34,.45-1.07,.33-1.46,.32-7.77-.1-9.04-3.51-10.16-4.96-1.9-2.45-1.94-2.56-2.27-3-3-4.01-5.62-2.6-4.62,.02,.4,1.05,1.14,2.27,1.5,2.86,.04,.07,.08,.13,.12,.2-1.3-1.24-2.99-2.98-4.31-3.86-1.07-.71-1.98-.3-2.42,.26-.61,.78,.06,2.39,.45,3.14,.34,.67,.87,1.69,1.46,2.56-2.6-.88-5.11-1.47-5.69-.61-1.18,1.76,3.04,4.71,8.75,7.8,3.22,1.74,6.51,4.09,7.91,4.14,4.15,.14,6.35,.48,10.97,.46,2.78-.01,5.03,.08,7.17,1.85,.56,.46,2.91,2.91,2.92,2.89-.24-.18,9.23-8.15,9-8.34-2.64-2.18-4.74-6.22-8.17-7.25-5.33-2.4-7.28-2.81-9.02-3.45-1-.37-1.53-.58-3.07-1.33-3.71-1.8-4.7-2.07-5.25-1.84-1.06,.43-.99,3.67,1.67,5.27,1.73,1.04,3.09,1.57,3.94,2.02,.39,.21,.8,.45,.57,.87h0Z"/><path class="bq" d="M482.31,2249.22c1.26-.29,2.51-.28,3.66,.03,2.32,.61,4.49,1.88,5.78,2.59,.35,.19,1.07,.27,2.04,.31,2.42,.11,6.35-.07,10.45,.22,.16,.01,.28,.15,.26,.3-.01,.16-.15,.28-.3,.26-4.09-.28-8.02-.11-10.44-.22-1.1-.05-1.9-.17-2.29-.38-1.26-.7-3.38-1.94-5.65-2.54-1.07-.28-2.22-.29-3.38-.02-.15,.03-.31-.06-.34-.21-.04-.15,.06-.31,.21-.34h0Z"/></g><path class="cf" d="M673.13,2307.14c-.07-9.35-1.06-17.59-1.81-25.91-1.2-13.37-5.27-35.17-11.37-43.08-8.8-11.42-20.67-18.25-36.11-19.54-.49-.04-2,6.56-4.93,11.11-2.55,3.95-5.11,6.67-10.3,6.78-9.27,.21-12.37-15.33-12.61-15.3-6.68,.77-17.51,5.65-20.79,9.79-6.5,8.23-16.85,48.99-21.43,48.78-3.66-.17-24.29-28.02-25.81-27.76-3.88,.66-14.06,10.43-14.66,12.53-.64,2.22,31.72,48.09,42.13,50.27,15.51,3.24,19.92-11.92,24.35-20.39,.24-.45,1.99-4.19,2.11-3.53,1.33,6.93,1.58,17.94,2.53,24.67,.05,.36,28.01,3.9,57.8,.27,.1-.01,7.46,6.79,11.39,8.04,3.89,1.23,7.26,1.25,12.22-.56,6.95-2.55,7.32-10.26,7.28-16.16h0Z"/><path class="au" d="M600.86,2244.02c1.7,.04,2.83,1.02,3.18,2.98,1.31,7.25,6.05,30.23,8.16,40.42,.16,.76,1.37,5.7,1.98,9.03,.31,1.69-1.34,3.3-3.44,3.43-7.45,.45-24.21,.74-32.04,.75-3.77,0-4.66-2.47-5.08-4.29-1.77-7.76-5.27-23.57-5.95-26.68-1.01-4.6-3.02-15.65-4.02-21.51-.39-2.29-.16-3.84,2.27-3.89,7.01-.12,25.21-.45,34.94-.24h0Z"/><g><path class="cg" d="M620.12,2277.02c-1.85-3.95-4.7-6.52-6.06-8.2-1.52-1.87-2.59-3.65-3.33-6.29-1.12-4.01-3.91-4.68-4.35-2.71-.89,3.94,1.34,10.73,.68,10.6-.29-.05-1.85-1.31-3.55-2.72-1.82-1.51-3.8-3.21-4.55-3.82-4.97-4.02-7.01-6.87-9.94-6.86-1.27,0-2.53,.76-2.57,.74-.83-.52-1.83-.99-2.99,0-1.4,1.2-.71,2.5,.21,3.67,.05,.07-1.81,1.5-.78,3.72,.29,.61,1.21,2.15,1.46,2.53,.12,.18-1.27,.96-.81,2.58,.48,1.71,8.22,9.5,9.77,10.7,1.87,1.44,4.02,2.96,6.01,4.03,1.62,.87,7.47,3.22,11.11,4.21,.15,.04,6.43-8.65,9.67-12.17h0Z"/><path class="bq" d="M587.13,2259.23s-.06-.06-.08-.09c-.08-.14-.02-.31,.11-.39,.04-.02,.15-.08,.29,0,.01,0,.08,.06,.19,.17,.8,.79,5.05,5.13,12.49,11.44,.12,.1,.13,.28,.03,.4-.1,.12-.28,.13-.4,.03-7.46-6.32-11.72-10.67-12.52-11.47-.05-.05-.09-.09-.11-.1h0Zm.28,.03s-.09,.02-.13,.02c.05,0,.1,0,.13-.02h0Zm-.14,.02h0Zm-.01,0h0Zm.17-.02h0Z"/><path class="bq" d="M584.5,2262.49s-.06-.05-.08-.09c-.08-.14-.03-.31,.11-.39,.04-.02,.15-.08,.29,0,.01,0,.08,.06,.18,.17,.79,.79,4.96,5.13,12.29,11.42,.12,.1,.13,.28,.03,.4-.1,.12-.28,.13-.4,.03-7.34-6.31-11.53-10.66-12.32-11.45-.04-.04-.09-.09-.1-.1h0Zm.28,.03s-.09,.03-.13,.02c.05,0,.1,0,.13-.02h0Zm-.15,.02h0Zm-.01,0h0Zm.17-.02h0Z"/><path class="bq" d="M584.91,2268.75s-.06-.06-.08-.09c-.07-.14-.02-.31,.12-.39,.04-.02,.15-.08,.29,0,.01,0,.06,.05,.15,.13,.62,.6,3.9,3.85,9.32,8.38,.12,.1,.14,.28,.04,.4-.1,.12-.28,.14-.4,.04-5.43-4.55-8.72-7.81-9.35-8.41-.03-.03-.07-.06-.08-.07h0Zm.28,.03s-.09,.02-.14,.02c.06,0,.1,0,.14-.02h0Zm-.15,.02h0Zm-.01,0h0Zm.17-.02h0Z"/></g><path class="cf" d="M641.06,2315.08c-14.69-11.58-30.11-22.49-31.36-23.98-.32-.38,3.09-5.99,6.74-10.18,1.4-1.61,3.68-4.53,5.29-4.66,.97-.08,19.13,11.29,21.62,12.98,1.42,.97,9.72,6.46,14.53,9.86l-16.83,15.98Z"/><path class="bp" d="M658.3,2299.04c-.02-.11-.08-.21-.17-.27-3.64-2.57-9.35-6.39-12.42-8.44l-.52-.35s0-.03,0-.04c-2.03-9.55-3.64-19.4-4.95-27.77-.02-.11-.08-.21-.17-.27-.09-.07-.2-.09-.31-.08-.23,.04-.39,.25-.35,.48,1.27,8.13,2.83,17.68,4.79,27.02-.26-.17-.46-.31-.6-.41-1.9-1.29-13.96-8.88-19.27-11.85-.97-.54-1.67-.9-2.07-1.07-.23-.1-.43-.15-.55-.14-.67,.05-1.47,.51-2.4,1.34-.92,.83-1.86,1.93-2.62,2.82-.19,.23-.38,.44-.55,.64-3.03,3.48-5.77,7.74-6.58,9.48-.11,.24-.26,.58-.28,.81-.03,.23,.06,.38,.11,.44,.62,.73,4.42,3.57,10.17,7.86,5.77,4.31,13.68,10.21,21.25,16.17,.07,.06,.17,.09,.26,.09,.02,0,.03,0,.05,0,.11-.01,.21-.07,.28-.16,.07-.09,.1-.2,.09-.31-.01-.11-.07-.21-.16-.28-7.58-5.97-15.49-11.87-21.27-16.18-5.24-3.91-9.05-6.75-9.92-7.62,.03-.11,.1-.29,.18-.47,.77-1.65,3.52-5.91,6.45-9.28,.17-.2,.36-.42,.55-.65,.74-.86,1.65-1.94,2.54-2.74,.79-.71,1.39-1.07,1.87-1.13,.08,.02,.14,.05,.2,.07,.37,.16,1.04,.5,1.99,1.03,5.3,2.97,17.32,10.52,19.21,11.81,.35,.24,1.09,.73,2.12,1.42,3.07,2.05,8.77,5.86,12.41,8.43,.09,.06,.2,.09,.31,.07,.11-.02,.21-.08,.27-.17,.06-.09,.09-.2,.07-.31Z"/><path class="bp" d="M554.85,2284.2c-.13-1.2-.26-2.33-.34-3.19h0c-.02-.23-.23-.4-.46-.38-.23,.02-.4,.23-.38,.46,.08,.86,.21,1.99,.34,3.18,.25,2.2,.5,4.48,.49,5.37,0,.23,.18,.42,.42,.42h0c.23,0,.42-.19,.42-.42,0-.92-.25-3.23-.5-5.46Z"/></g><path class="bo" d="M553.73,2412.95c27.34,.07,89.83-.28,132.49-.38,.46,0,.83-.37,.83-.83,0-.46-.37-.83-.83-.83-42.66,.11-105.15,.45-132.49,.38-.46,0-.83,.37-.83,.83,0,.46,.37,.83,.83,.83h0Z"/></g><g><path class="bx" d="M237.41,2526.62c0,5.43,72.07,8.5,182.82,8.5,110.76,0,200.78-.71,200.78-8.03,0-8.75-78.21-6.86-188.97-6.86-110.76,0-194.63-2.35-194.63,6.39Z"/><path class="ag" d="M412.2,2395.29s-12.18-13.91-18.32-20.52c-3.33-3.59-9.42-13.38-11.47-17.89-13.35-19.58-26.34-22.52-40.5-19.7-14.16,2.82-46.87,22.43-46.87,22.43l27.1,50.65s54.89,33.64,55.81,33.42c.92-.22,34.25-48.39,34.25-48.39Z"/><g><path class="be" d="M390.24,2507.24c.63,0,1.2-.42,1.37-1.05l13.7-51.02c.2-.76-.25-1.53-1-1.74-.76-.2-1.53,.24-1.74,1l-13.7,51.02c-.2,.76,.25,1.53,1,1.74,.12,.03,.25,.05,.37,.05Z"/><path class="be" d="M504.56,2502.52c.24,0,.48-.06,.71-.19,.68-.39,.91-1.26,.52-1.94l-40.67-70.62c-.39-.68-1.45-.92-2.13-.53-.68,.39-.91,1.26-.52,1.94l40.86,70.63c.26,.45,.74,.71,1.23,.71Z"/><path class="be" d="M507.4,2496.85s-29.26,15.59-68.72,15.12-66.06-16.06-70.05-15.59-12.41,4.25-11.08,6.14c1.33,1.89,27.93,19.84,77.14,21.73,49.21,1.89,90.44-17.48,91.77-20.31,1.33-2.83-17.73-8.03-19.06-7.09Z"/></g><polygon class="be" points="296.93 2295.37 311.11 2300.09 321.97 2312.85 318.66 2318.99 292.68 2313.79 296.93 2295.37"/><path class="x" d="M363.39,2278.51l-20.64,13.08-3.27,19.16s23.04-8.87,31.54-11.23c8.5-2.36-7.63-21.01-7.63-21.01Z"/><path class="ag" d="M288.31,2355.07c2,11.69,5.99,26.31,13.35,41.87,16.53,34.95,53.38,73.69,97.32,68.97,43.93-4.72,69.92-43.46,69.92-43.46l-59.05-16.06-43.93-51.96s-66.25-24.54-76.99-25.67c-.8-.08-1.3-.04-1.43,.16-1.05,1.58-1.66,11.59,.83,26.16Z"/><path class="w" d="M288.31,2355.07c17.58,7.9,28.03,32.28,28.03,32.28l8.34,4.87c8.34,4.86,7.29-1.74,17.02-6.95l-52.79-56.52c-.8-.08-1.3-.04-1.43,.16-1.05,1.58-1.66,11.59,.83,26.16Z"/><g><g><path class="bl" d="M587.23,2422.79s-34.92,3.65-37.39-.83c-1.78-3.23-.83-12.4-.83-12.4l22.89-7.05,15.33,20.28Z"/><path class="x" d="M553.46,2414.41c6.52,3.6,9.43,4.79,14.04,6.56,8.1,3.1,15.58,2.68,22.8,1.47,11.34-1.89,14.17-11.81,8.03-19.37-3.34-4.12-15.1-5.71-25.42-6.31-8.62-.5-16.24-.31-17.1-.31-1.89,0-6.5-3.03-6.5-3.03,0,0-13.81,11.06,4.14,20.98Z"/><path class="bl" d="M569.42,2421.58c8.1,3.1,13.67,2.07,20.89,.86,11.34-1.89,14.17-11.81,8.03-19.37-3.34-4.12-15.1-5.71-25.42-6.31-5.04,.74-9.48,17.46-3.5,24.81Z"/></g><path class="bl" d="M593.28,2522.88s.93,1.15,.93,2.32c0,1.06-1.07,2.83-18.55,3.78-17.48,.94-43.8,.46-44.41-3.78-.47-3.31,5.2-3.55,5.2-3.55l56.83,1.23Z"/><g><path class="at" d="M386.91,2419.86s61.89,5.67,66.14,5.2c4.25-.47,25.51,.94,25.51,.94,0,0,38.11,78.55,41.72,85.41,.02,.04,.15,.26,.33,.55,.4,.67,10.94-2.09,19.96-6.17,7.66-3.47,14.57-6.94,14.57-6.94-16-26.82-40.01-86.57-40.2-87.03,.5,.3,32.03,19.62,38.5,18.18,5.7-1.27,4.71-16.43,3.44-26.3-.67-5.22-3.83-9.79-8.47-12.26-17.22-9.17-60.16-31.59-68.43-31.59-10.39,0-91.41,27.64-91.41,27.64l-1.65,32.36Z"/><path class="br" d="M512.93,2408.73c.13,0,.26-.03,.38-.08,.48-.21,.69-.77,.48-1.25-1.88-4.22-3.97-8.18-4.9-9.58-2.48-3.71-8.89-5.48-14.92-4.12-.51,.12-.83,.62-.71,1.13,.11,.51,.62,.83,1.13,.71,5.22-1.18,10.9,.28,12.93,3.33,.87,1.3,2.93,5.22,4.74,9.29,.16,.35,.5,.56,.86,.56Z"/><path class="br" d="M428.5,2419.37c.1,0,.2-.02,.31-.05,.5-.17,49.92-17.14,74.23-27.42,.48-.2,.71-.76,.5-1.24-.2-.48-.76-.71-1.24-.5-24.25,10.26-73.61,27.21-74.11,27.38-.49,.17-.76,.71-.59,1.2,.13,.39,.5,.64,.89,.64Z"/></g><g><path class="bw" d="M520.43,2511.67c.07,.13,.12,.23,.17,.31,1.28,2.3,11.41-1.63,20.44-5.71l-2.41-4.88s-18.56,6.21-18.19,10.27Z"/><path class="x" d="M534.84,2502.76c1.49-.62,3.12-1.26,4.89-1.89,10.74-3.84,14.39-2.63,15.41-2.01,1.78,3.1,3.41,5.63,3.96,6.26,12.28,13.94,34.49,13.94,33.54,18.67-.94,4.72-57.63,2.59-58.58-.24-.94-2.83,2.36-8.5,2.36-13.23,0-1.35-.65-4.19-1.58-7.56Z"/><path class="bl" d="M559.1,2526.38s4.25-16.76,6.61-17.24c2.36-.47,28.82,7.64,28.34,15.59,0,0-3.89,1.89-19.84,1.89-15.96,0-15.12-.24-15.12-.24Z"/></g></g><g><path class="x" d="M320.55,2321.82s19.84,24.09,32.6,19.37c12.76-4.72,.94-19.84,.94-19.84,0,0-4.49-1.5-8.52-3.31-2.57-1.16-4.97-2.44-5.89-3.54-.91-1.1-4.75-2.86-9.11-4.61-6.83-2.74-18.27-7.58-18.52-7.66,.17,.21,8.5,11.81,8.5,19.6Z"/><path class="a`" d="M395.43,2385.69s.91-1.66-.32-3.24c-1.51-1.94-3.89-.86-7.47-8.66-2.91-6.34-16.53-39.68-17.95-42.99-1.42-3.31-17.01-10.39-17.01-10.39,0,0,3.31,10.39-3.78,12.28-7.97,2.13-24.26-6.55-24.26-6.55l26.15,75.52,34.7-1.7,9.94-14.26Z"/><path class="bb" d="M321.5,2310.96s9.5,13.61,24.07,7.09c-2.57-1.16-7.09-5.26-8.01-6.37-.91-1.1-2.62-.03-6.99-1.78l-9.08,1.07Z"/></g><g><path class="aw" d="M330.64,2403.47s-15.54-30.27-28.27-47.87c-15.69-9.96-66.83-40.68-67.07-51.78-.31-14.71,8.73-21.21,15.34-21.21,4.72,0,37.56,9.21,37.56,9.21,0,0-.71-3.54-.47-4.25,.71-2.13,9.92,4.72,10.39,6.61,.47,1.89,1.89,12.28,0,17.48,0,0,13.94,5.91,18.66,6.38,0,0,0-.47,1.42-1.42,.62-.41,1.42-.7,1.42-.7,0,0,14.41,17,20.08,27.39,5.67,10.39,10.39,29.29,11.81,35.9,1.42,6.61,9.45,21.26,9.45,21.26,0,0-27.94,3.93-30.3,2.99Z"/><path class="p" d="M295.28,2311.43c.26,0,.51-.14,.63-.39,.18-.35,.03-.78-.32-.95-.23-.12-23.6-11.86-35.35-19.8-.32-.22-.76-.13-.98,.19-.22,.32-.13,.76,.19,.98,11.82,7.99,35.27,19.77,35.51,19.89,.1,.05,.21,.08,.32,.08Z"/><path class="p" d="M272.99,2299.2h0c.26,0,.47-.21,.47-.47,0-.15-.03-3.62-2.5-7.73-.13-.22-.42-.3-.65-.16-.22,.13-.3,.42-.16,.65,2.32,3.87,2.36,7.21,2.36,7.24,0,.26,.21,.47,.47,.47Z"/><path class="p" d="M287.25,2305.05c.22,0,.42-.16,.46-.39,.01-.06,1.05-5.74,.45-13-.02-.26-.25-.45-.51-.43-.26,.02-.45,.25-.43,.51,.6,7.12-.42,12.69-.43,12.74-.05,.26,.12,.5,.38,.55,.03,0,.06,0,.09,0Z"/><path class="p" d="M346.63,2368.71c-6.03-10.39-16.56-21.2-22.22-27.01-3.57-3.67-3.86-4.01-3.86-4.52,0-.79,.88-1.42,2.1-2.29,.61-.44,1.99-1.42,2.14-1.88-.59-.61-4.09-1.33-5.6-1.65-1.4-.29-2.14-.45-2.49-.63-.41-.2-1.36-.68-.86-11.53,.02-.39,.34-.69,.74-.68,.39,.02,.69,.35,.68,.74-.19,4.26-.17,9.25,.21,10.25,.37,.12,1.27,.3,2.02,.46,4.2,.87,6.75,1.51,6.75,2.96,0,1.14-1.33,2.1-2.74,3.11-.47,.34-1.14,.82-1.42,1.11,.46,.58,1.88,2.04,3.37,3.57,5.7,5.85,16.31,16.75,22.43,27.29,.2,.34,.08,.77-.26,.97-.11,.07-.23,.1-.36,.1-.24,0-.48-.13-.61-.35Zm-24.68-31.42h0Z"/><path class="p" d="M302.38,2356.09c.2,0,.39-.13,.45-.34,.6-2.02,1.28-5.57,2.4-11.45,.73-3.81,1.63-8.56,2.82-14.51,.05-.26-.11-.5-.37-.56-.26-.05-.5,.11-.56,.37-1.19,5.96-2.1,10.7-2.82,14.52-1.11,5.86-1.79,9.39-2.37,11.36-.07,.25,.07,.51,.32,.59,.04,.01,.09,.02,.13,.02Z"/></g><path class="bl" d="M298.24,2291.4c-.13,.07-.29,.1-.45,.08-.39-.06-.67-.42-.61-.82,.16-1.09,.55-2.15,1.16-3.14,.96-1.56,2.15-2.46,3.54-2.67,2.16-.32,3.92,1.21,4,1.28,.3,.26,.33,.72,.06,1.02-.26,.3-.72,.33-1.02,.06-.01,0-1.35-1.16-2.84-.93-.94,.14-1.79,.81-2.51,2-.51,.82-.83,1.7-.96,2.59-.03,.23-.18,.42-.37,.53Z"/><g><path class="aw" d="M386.27,2370.46s-2.34-4.82-4.77-8.48c-3.13-4.72-7.35-10.09-9.21-14.88-3.31-8.5-16.06-21.26-19.37-24.09-1.78-1.52-5.12-3.39-8.02-5.04-2.5-1.43-7.73-6.47-8.28-7.23-.8-1.12,12.28,6.37,14.64,6.37l3.04-4.02c1.05-1.72,4.03-3.73,5.42-5.38,.42-.5,.35-1.97,.47-2.58,.17-.81,1.75-2.53,2.7-4.35,2.09-4,2.52-9.16,2.16-12.1-.94-7.56-3.54-9.68-3.07-10.63s6.14-8.03,8.03-8.03c1.89,0,3.54,3.07,4.02,4.02,0,0,10.17-3.77,12.76-4.72,4.49-1.65,14.17,1.42,17.48,10.39,3.31,8.98-19.22,54.65-20.16,58.9-.94,4.25-2.36,11.34-2.36,11.34,0,0,.86,12.05,4.54,20.53Z"/><path class="p" d="M377.57,2290.79c.24,0,.44-.18,.47-.42,.46-4.15-.54-11.52-3.02-16.66-.11-.24-.4-.33-.63-.22-.23,.11-.33,.4-.22,.63,2.4,4.99,3.38,12.13,2.93,16.15-.03,.26,.16,.49,.42,.52,.02,0,.04,0,.05,0Z"/><path class="p" d="M373.36,2300.3c3.01,0,9.08-1.76,9.83-1.98,.38-.11,.59-.5,.48-.88-.11-.38-.5-.59-.88-.48-1.61,.47-5.34,1.46-7.91,1.81,3.34-2.4,10.11-7.32,11.91-9.13,.28-.28,.28-.73,0-1-.28-.28-.73-.28-1,0-2.29,2.29-13.5,10.24-13.61,10.32-.23,.16-.34,.45-.28,.73,.06,.28,.28,.49,.55,.55,.25,.05,.55,.07,.9,.07Z"/><path class="p" d="M380.07,2358.32c.07,0,.15-.01,.22-.04,.37-.12,.57-.52,.45-.89-1.31-3.99-7.92-23.99-9.46-25.44-.72-.68-2.59-1.89-4.57-3.18-1.71-1.11-4.28-2.77-4.66-3.26-.07-.32,.29-1.4,.51-2.05,.43-1.29,.8-2.4,.43-3.14-.42-.84-3.45-1.76-9.01-2.74-.39-.07-.75,.19-.82,.57-.07,.39,.19,.75,.57,.82,3.36,.59,7.3,1.52,8,2.03,.04,.34-.31,1.38-.52,2.01-.43,1.29-.8,2.4-.43,3.14,.31,.63,1.74,1.59,5.16,3.81,1.84,1.19,3.75,2.43,4.37,3.02,1.04,1.09,6.13,15.82,9.09,24.85,.1,.3,.38,.49,.67,.49Z"/></g><g><path class="ag" d="M458.26,2427.41s-16.3-2.35-33.54-20.31c-15.5-16.15-25.98-20.79-45.82-16.53-19.84,4.25-45.58,16.33-66.07-7.8l2.29,22.92,69.92,51.97,73.22-30.23Z"/><path class="a`" d="M344.95,2397.59c10.97,0,22.43-2.99,34.14-6.36,4.97-1.43,9.39-1.5,13.05-1.38,.38,.03,.72-.29,.73-.68,.01-.39-.29-.72-.68-.73-3.77-.13-8.33-.06-13.49,1.43-14.24,4.1-28.09,7.62-41.01,5.81-14.4-2.02-25.9-10.69-35.18-26.5-.2-.34-.63-.45-.97-.25-.34,.2-.45,.63-.25,.97,9.51,16.21,21.35,25.1,36.2,27.18,2.46,.34,4.95,.5,7.46,.5Z"/></g><path class="a`" d="M457.24,2427.44c.36,0,.57-.02,.63-.03,.39-.05,.67-.4,.62-.79-.05-.39-.4-.67-.79-.62-.14,.01-11.84,1.02-32.49-19.41-11.29-11.17-20.31-17.72-33.03-18.14-.4-.02-.72,.29-.73,.68-.01,.39,.29,.72,.68,.73,12.25,.41,21.04,6.81,32.08,17.73,18.79,18.58,30.26,19.84,33.02,19.84Z"/><path class="br" d="M479.74,2432.13c.14,0,.27-.03,.4-.09,.47-.22,.67-.79,.45-1.26l-4.25-8.98c-.22-.47-.79-.67-1.26-.45-.47,.22-.67,.79-.45,1.26l4.25,8.98c.16,.34,.5,.54,.85,.54Z"/><g><path class="be" d="M330,2515.28c.6,0,1.18-.41,1.47-.98l28.82-55.87h0c25.02,.03,43.85-11.79,51.78-17.79,2.48-1.88,5.5-2.92,8.61-2.97,28.26-.43,39.79-4.04,43.61-5.7,.82-.36,1.28-1.31,.94-2.14-.35-.87-1.35-1.26-2.2-.89-2.95,1.3-12.87,5.52-45.74,5.52-.42,0-3.19,.25-5.19,2-.23,.2-20.32,18.81-51.74,18.81-.35,0-.7,0-1.05,0-.64-.01-1.2,.34-1.49,.89l-29.29,56.69c-.42,.81-.1,1.81,.71,2.23,.24,.13,.5,.19,.76,.19Z"/><path class="be" d="M437,2516.93c.15,0,.29-.02,.44-.06,.88-.24,1.4-1.16,1.15-2.03l-21.73-78.42c-.24-.88-1.16-1.4-2.03-1.15-.88,.24-1.4,1.16-1.15,2.03l21.73,78.42c.2,.73,.87,1.21,1.59,1.21Z"/><path class="x" d="M453.07,2503.94s-31.18,15.59-73.22,15.12c-42.04-.47-70.39-16.06-74.64-15.59-4.25,.47-13.23,4.25-11.81,6.14,1.42,1.89,29.76,19.84,82.2,21.73,52.44,1.89,96.37-17.48,97.79-20.31,1.42-2.83-18.9-8.03-20.31-7.09Z"/><path class="ad" d="M386.32,2518.88c6.15,0,23.2-.71,46.62-7.4,.38-.11,.59-.5,.49-.88-.11-.38-.5-.59-.88-.49-29.28,8.37-48.47,7.31-48.66,7.3-.39-.02-.73,.27-.75,.66-.02,.39,.27,.73,.66,.75,.04,0,.9,.05,2.51,.05Z"/></g><g><path class="bl" d="M336.09,2277.66s3.67-10.82-5.61-17.01c-9.92-6.61-16.82,7.87-16.82,7.87,.58-1.95-1.19-8.22-5.54-5.19-4.35,3.03-4.1,18.58-4.1,18.58,0,0-1.63-1.69-3.31-1.42-2.84,.47,1.94,5.87,1.94,5.87,0,0-4.89,4.41-3.17,8.4,1.72,3.99,13.03,13.13,17.28,13.6,5.75,.64,17.01-14.88,17.01-14.88l2.3-15.83Z"/><g><path class="x" d="M334.94,2275.55s14.28,20.12,13.21,27.03c-.56,3.65-5.97,7.47-8.83,8.84-8.78,4.22-16.82,2.6-22.56-5.89,0,0-9.41,3.77-9.84-7.53-.23-6.17,8.15-1.05,8.15-1.05,0,0,1.6-1.57-.67-7.95,4.72-.47,14.52-10.03,14.87-15.84,0,0,2.22,2.07,5.66,2.39Z"/><path class="ay" d="M339.67,2292.74c-.19-.36-.66-.51-1.01-.31-.35,.19-.7,.38-1.06,.57-.36,.19-.5,.65-.31,1.01,.19,.36,.66,.51,1.01,.31,.35-.19,.7-.38,1.06-.57,.36-.19,.5-.65,.31-1.01Z"/><path class="bl" d="M325.63,2281.69c-.67,.79-1.45,1.47-2.07,2.3-.63,.84-1.15,1.76-1.75,2.62-.54,.78,.65,1.68,1.2,.89,.6-.86,1.12-1.78,1.75-2.62,.63-.82,1.41-1.51,2.07-2.3,.61-.73-.58-1.62-1.2-.89Z"/><path class="bl" d="M334.37,2280.22c-.23-.08-.41-.29-.46-.54-.07-.39,.18-.77,.57-.84,.09-.02,2.29-.42,4.51,.25,.38,.11,.6,.52,.48,.9-.12,.38-.52,.6-.9,.48-1.88-.57-3.81-.22-3.83-.22-.13,.02-.26,.01-.38-.03Z"/></g><path class="bl" d="M316.78,2287.58s1.42,2.83-.85,6.15c0,0,6.99,8.49,14.08,7.55,3.75-.5,4.82-3.57,8.03-5.67,3.12-2.04,7.78-1.45,9.46,1.41,2.31,3.93,6.69,13.56-3.19,16.61-9.23,2.85-19.56,1.85-25.33-4.22-.99-1.04-2.74-2.75-2.45-4.16,.19-.93,.3-3.08-.08-4.39-.4-1.38-.73-3.49-4.15-5.7-3.42-2.21,.27-7.49,.27-7.49l4.2-.09Z"/><path class="a`" d="M341.75,2300.82c-.13-.56-.31-1.16-.8-1.46-.26-.16-.56-.2-.86-.2-1.23,0-2.34,.71-3.36,1.39-.1,.07-.21,.14-.29,.24-.23,.28-.18,.7,.01,1,.19,.3,.5,.5,.8,.7,.99,.65,1.97,1.29,2.96,1.94,.66,.43,1.91,.89,2.1-.23,.16-.96-.34-2.42-.56-3.36Z"/><path class="bw" d="M324.86,2289.65c.03-.55,.58-1.1,1.02-1.38,.53-.33,1.03-.68,1.68-.74,.49-.05,1.48-.03,1.84,.36,.28,.31,.17,.91-.19,1.1-.21,.11-.45,.06-.67,.02-.31-.06-.55-.03-.86,.06-.62,.19-.96,.43-1.21,1.02-.18,.42-.5,.72-.99,.62-.53-.1-.74-.56-.63-1.06,0-.04-.03,.13,0,0Z"/><path class="bw" d="M341.59,2286.43c.12-.04,.17-.19,.17-.32,.02-.63-.47-1.19-1.05-1.43-.64-.27-1.59-.39-2.22-.06-.15,.08-.3,.19-.35,.36-.1,.37,0,.72,.27,.98,.58,.54,1.09,.02,1.69-.11,.26-.06,.45-.02,.69,.08,.11,.04,.76,.52,.79,.51Z"/></g></g><g><path class="aq" d="M349.3,2264.03c.39-29.29,.14-83.07,1.21-100.11,.52-8.26,4.17-11.52,12.01-12.44,6.6-.78,54.12-1.2,73.38-.1,9.93,.57,10.04,9.91,10.6,13.43,2.04,12.86,.77,48.54-.03,64.37-.13,2.61,.24,15.83-13.43,16.69-11.87,.75-43.51,.26-52.04,.36-5.97,.07-31.85,29.28-31.7,17.8h0Z"/><path class="aa" d="M383.25,2197.03c-2.05-4.49-2.8-9.31-1.65-13.85,1.45-5.67,7.28-12.94,14.61-12.96,3.15,0,6.6,1.3,10.1,4.69,.82,.79,1.06,1.9,.83,3.17-.13,.7-.42,1.46-.84,2.22,.66,.55,1.34,1.17,2.05,1.84,.33,.32,.65,.65,.96,.99,1.57-1.04,3.56-1.48,6.01-1.01,7.78,1.48,10.64,8.81,9.83,16.21-.59,5.37-3.13,10.74-7.02,13.86-.68,3.1-2.14,5.9-4.66,8.06-3.64,3.13-7.44,4.16-11.06,3.75-3.87,2.26-8.66,2.44-13.08,1.75-4.41-.69-8.57-2.6-11.41-5.13-1.96-1.75-3.29-3.79-3.69-5.93-.67-3.55,1.19-7.47,7.33-10.76,.59-.32,1.22-.55,1.89-.72-.03-.17-.06-.33-.08-.5-.24-1.67-.32-3.67-.11-5.67h0Zm.47,7.54c-.53,.15-1.03,.34-1.51,.59-5.37,2.87-7.19,6.15-6.61,9.26,.35,1.86,1.54,3.62,3.25,5.14,2.66,2.37,6.57,4.15,10.7,4.79,3.53,.55,7.33,.54,10.61-.81-2.15-.6-4.21-1.69-6.11-3.12-5.04-3.79-8.94-10.01-10.32-15.85h0Zm32.63,8.82c-.94,.53-1.94,.94-2.99,1.2-1.36,.34-2.75,.51-4.15,.53-.15,.84-.39,1.66-.75,2.48-.77,1.74-2.06,3.43-4.1,5.04,2.72-.1,5.51-1.15,8.2-3.46,1.86-1.6,3.08-3.59,3.79-5.79h0Zm-28.54-9.24c-.93,0-1.85,.02-2.72,.14,1.31,5.54,5.02,11.42,9.79,15.01,2.22,1.67,4.68,2.83,7.25,3.21,.11-.07,.21-.14,.31-.21,2.44-1.68,3.92-3.44,4.73-5.28,.28-.64,.48-1.29,.62-1.94-6.4-.37-12.9-3.76-17.88-8.68-.73-.72-1.43-1.47-2.09-2.25h0Zm21.32-19.07c-.63,.61-1.15,1.34-1.59,2.16-1.48,2.81-1.89,6.56-1.51,9.56,.48,3.85,1.89,7.57,2.72,11.13,.46,1.98,.74,3.91,.62,5.78,1.23-.03,2.45-.19,3.65-.49,1.39-.34,2.67-.97,3.83-1.82,.18-.92,.28-1.87,.32-2.83,.28-6.3-2.08-13.24-4.6-18.02-1-1.9-2.11-3.79-3.45-5.48h0Zm-3.94-5.68c.27-.54,.47-1.08,.57-1.59,.14-.75,.06-1.43-.42-1.9-3.16-3.06-6.26-4.3-9.12-4.29-6.68,.02-11.93,6.73-13.25,11.91-.91,3.57-.55,7.32,.73,10.91,.2-.81,.47-1.59,.8-2.33,1.04-2.28,2.74-4.06,5.36-4.7,3.26-.8,7.17,1.42,9.53,4.59,2.41,3.23,3.15,7.36,.3,10.11-2.15,2.07-5.41,2.21-8.8,2.12-.39-.01-.77-.02-1.16-.04,.38,.41,.77,.82,1.17,1.21,4.77,4.7,10.98,7.98,17.09,8.29,.12-1.76-.16-3.58-.59-5.44-.84-3.6-2.25-7.38-2.74-11.28-.41-3.26,.05-7.33,1.66-10.39,.52-.98,1.15-1.86,1.91-2.59-.27-.29-.55-.58-.83-.85-.63-.6-1.24-1.15-1.83-1.65-.41,.58-.89,1.15-1.41,1.69-1.38,1.42-3.09,2.58-4.76,3.1-1.2,.37-2.39,.42-3.46,.04-1.72-.62-3.2-2.38-3.79-5.98-.33-2.02,.58-3.82,2.54-4.51,1.08-.38,2.52-.42,4.29,.11,1.74,.52,3.82,1.6,6.21,3.46h0Zm13.29,30.6c2.92-2.97,4.79-7.42,5.27-11.84,.73-6.67-1.7-13.35-8.7-14.68-1.95-.37-3.54-.05-4.82,.74,1.39,1.75,2.54,3.72,3.58,5.69,2.62,4.96,5.05,12.19,4.76,18.74-.02,.46-.05,.91-.1,1.36h0Zm-33.95-10.49c0,1.06,.09,2.08,.22,2.99,.02,.14,.04,.29,.07,.44,.62-.08,1.25-.13,1.9-.15-.8-1.05-1.53-2.15-2.18-3.28h0Zm3.96,3.26c.81,.01,1.63,.04,2.43,.06,3,.09,5.89,.1,7.79-1.72,2.34-2.25,1.52-5.62-.45-8.26-2.01-2.71-5.29-4.74-8.07-4.06-2.17,.53-3.55,2.03-4.42,3.92-.57,1.25-.92,2.67-1.1,4.11,1,2.09,2.29,4.11,3.81,5.97h0Zm15.97-22.16c-3.46-2.71-6.19-3.72-8.14-3.66-1.04,.03-1.83,.39-2.3,.98-.47,.58-.63,1.36-.49,2.19,.47,2.88,1.5,4.39,2.87,4.88,.79,.28,1.67,.22,2.56-.06,1.47-.46,2.95-1.5,4.17-2.74,.49-.51,.94-1.04,1.33-1.59h0Z"/></g></g></g><g><circle class="bf" cx="797.36" cy="459.35" r="266.4"/><g class="cl"><g><path class="ao" d="M933.35,368.28s-38.24,21.48-51.26,30.27c-13.02,8.79-36.98,7.88-34.72,16.7,2.26,8.82,36.77,2.95,36.77,2.95,0,0-14.43,18.01-20.49,25.89-6.05,7.88-22.04,27.35-16.63,32.23,5.42,4.88,42.41-36.3,42.41-36.3,0,0-36.45,52.51-27.48,57.63,7.8,4.46,44.22-48.24,44.22-48.24,0,0-25.56,45.69-23.4,53.32,1.23,4.33,8.77,5.4,17.52-7.69,11.37-17.02,21.84-33.15,21.84-33.15,0,0-12.79,34.42-13.27,38.25-.49,3.84,4.05,11.15,16.19-8.91,14.73-24.33,39.99-75.38,43.36-102.88l-35.08-20.06Z"/><polygon class="bm" points="924.72 368.28 974.26 404.39 1127.27 215.83 1046.52 173.08 924.72 368.28"/></g></g><ellipse class="bx" cx="747.86" cy="650.81" rx="198.38" ry="40.88"/><g><path class="av" d="M680.6,627.99s46.62,58.08,82.92-8.72c36.3-66.8-33.39-21.1-33.39-21.1l-49.53,29.82Z"/><path class="af" d="M672.39,322.64c-2.46,8.07-1.79,16.71-2.47,25.12-.68,8.41-3.19,17.42-10.02,22.36-7.27,5.27-17.24,4.44-25.64,7.62-9.64,3.65-16.85,13.04-17.9,23.29-.58,5.69,.6,11.4,.81,17.11,.21,5.71-.76,11.9-4.78,15.97-3.58,3.63-8.97,4.96-12.65,8.48-6.83,6.55-5.27,18.12-.49,26.29,5.43,9.28,14.83,16.67,25.53,17.73,9.87,.98,19.41-3.3,28.4-7.48,9.19-4.27,18.37-8.55,27.56-12.82,8.67-4.04,17.77-8.16,27.33-7.8,6.55,.25,12.85,2.61,19.38,3.21,12.28,1.12,24.27-4.06,34.87-10.36,2.24-1.33,4.49-2.76,6.04-4.85,3.19-4.33,2.59-10.35,1.14-15.53-1.44-5.18-3.6-10.38-3.03-15.73,.78-7.35,6.44-13.13,9.35-19.92,4.26-9.93,2.35-21.47-1.45-31.59-3.81-10.12-9.41-19.52-12.71-29.81-1.48-4.61-2.49-9.38-4.48-13.79-2.76-6.14-7.3-11.35-12.43-15.71-5.71-4.86-12.41-8.84-19.81-10.05-6.85-1.13-11.78,1.24-18.07,3.25-4.25,1.36-8.73,1.54-12.97,3.04-10.02,3.54-18.4,11.72-21.52,21.96Z"/><path class="cc" d="M742.11,413.59s30.31,12.21,41.17,19.68c10.86,7.46,15.61,50.89,15.61,50.89l-54.96,30.54-61.07,63.11-34.61,20.36s-14.25-138.43,6.11-164.21c20.36-25.79,69.89-20.36,69.89-20.36h17.87Z"/><g><path class="an" d="M818.91,592.2s-4.24,36.54,3.18,40.8c13.42,7.71,38.28,15.25,36.09,21.67-2.18,6.43-62.01,5.81-63.58-.1-1.58-5.91,5.39-23.83-1.21-59l25.52-3.37Z"/><path class="al" d="M795.38,641.44c-.73,6.54-1.35,11.03-.79,13.14,1.58,5.91,61.4,6.53,63.58,.1,1.62-4.77-11.51-10.36-23.97-15.91-3.04,4.94-9.47,12.6-38.83,2.68Z"/></g><g><path class="ao" d="M789.05,594.46s-4.24,36.54,3.18,40.8c13.42,7.71,38.28,15.25,36.09,21.67-2.18,6.43-62.01,5.81-63.58-.1-1.58-5.91,5.39-23.83-1.21-59l25.52-3.37Z"/><path class="as" d="M765.52,643.7c-.73,6.54-1.35,11.03-.79,13.14,1.58,5.91,61.4,6.53,63.58,.1,1.62-4.77-11.51-10.36-23.97-15.91-3.04,4.94-9.47,12.6-38.83,2.68Z"/></g><path class="av" d="M791.37,479.08s5.47-6.87,19.04-5.3c13.57,1.57,21.04,13.78,21.04,71.46v84.82l-32.57-2.71-15.61-124.18,8.1-24.09Z"/><path class="ax" d="M648.24,598.17s5.43,52.93,42.07,52.93,65.14-56.32,65.14-56.32v32.57h50.21s12.79-152.97-27.14-153.36c-46.14-.44-95.68,103.82-95.68,103.82l-34.61,20.36Z"/><path class="bv" d="M755.45,595.25c-.26,0-.47-.21-.47-.47v-71.25c0-.26,.21-.47,.47-.47s.47,.21,.47,.47v71.25c0,.26-.21,.47-.47,.47Z"/><path class="ao" d="M671.31,492.99s6.16,42.98,36.89,47.33c30.73,4.35,60.14,1.93,60.14,1.93v14.52s-63.79,21.04-97.04,0c-33.25-21.04-34.61-63.79-34.61-63.79h34.61Z"/><path class="cc" d="M669.75,421.79c-22.42,11.25-28.75,17.59-35.99,74.59h42.52l1.81-40.71-6.38-34.83-1.97,.96Z"/><g><path class="ar" d="M757.3,351.97s2.68-4.69,5.15-3.01c6.3,4.27,.22,10.88-3.69,12.47l-1.46-9.46Z"/><path class="ao" d="M715.98,299.91c-18.27,2.4-32.09,18.38-31.86,36.81,.08,6.06,1.61,11.72,4.23,16.69,5.89,12.42,10.73,22.43,16.41,29.57,5.76,7.24,8.77,16.28,8.06,25.5l-.36,4.64c22.59,12.63,30.17,1.01,30.17,1.01l-1.29-19.65h0c22.87-4.26,17.02-46.59,16.19-59.16h-.04c-.01-.46-.03-.94-.06-1.41-1.38-21.04-20.22-36.78-41.47-33.99Z"/><path class="af" d="M715.52,337.15c-5.94,8.03-12.3,15.95-16.54,24.96-.47,.99-3.77,8.44-2.63,9.19-6.24-4.13-10.48-10.62-14.13-17.15-6.32-11.32-5.62-25.46,.47-36.72,6.02-11.13,16.93-17.42,29.27-19.24,13.24-1.95,28.05,1.56,36.91,12.14,8.32,9.93,9.53,23.09,11.21,35.39-1.89-13.82-21.23-22.95-32.73-27.12,.33,.12-7.54,12.54-7.96,13.15-1.25,1.81-2.55,3.61-3.88,5.39Z"/><path class="ao" d="M700.2,362.94c-.67-1.15-1.76-1.98-3.02-2.4-2.6-.85-7.13-1.68-9.99,1.59-4.2,4.79,5.63,16.13,14.18,9.61,0,0,2.39-2.72-1.17-8.81Z"/><path class="as" d="M747.72,375.23s-5.97-4.83-7.53-4.18c-1.57,.64-2.23,2.72-2.23,2.72,0,0-1.21-1.84-3.19-1.63-1.98,.21-5.91,7.57-5.91,7.57,0,0,5.22,2.28,11.18,.85,5.04-1.2,7.67-5.32,7.67-5.32h0Z"/><path class="af" d="M710.11,352.98c-.38,.06-.78-.05-1.08-.32-.55-.49-.6-1.33-.11-1.88,.15-.16,3.7-4.03,9.63-4.64,.73-.08,1.39,.46,1.46,1.19,.08,.73-.52,1.4-1.19,1.46-4.94,.51-7.89,3.73-7.92,3.76-.22,.24-.5,.39-.8,.43Z"/><path class="af" d="M742.4,342.86c-.35-.16-.63-.46-.74-.86-.2-.71,.22-1.44,.92-1.64,.21-.06,5.24-1.43,10.61,1.27,.66,.33,.92,1.13,.59,1.79-.33,.66-1.16,.92-1.79,.59-4.44-2.23-8.65-1.1-8.7-1.09-.31,.09-.63,.06-.9-.07Z"/><path class="bm" d="M736.49,369.31c3.74-.82,4.81-3.74,4.82-5.39,0-.29-.11-.56-.3-.77-3.66-3.91-3.71-9.99-3.71-10.05,0-.62-.5-1.12-1.12-1.12-.61,0-1.12,.5-1.12,1.12,0,.28,.03,6.65,3.97,11.2-.16,.9-.94,2.93-4.54,2.99-.63,.02-1.11,.52-1.1,1.14,.01,.62,.52,1.11,1.14,1.1,.73-.01,1.39-.09,1.98-.22Z"/><path class="t" d="M747.72,373.66c.13,0,.26,.05,.35,.16,.17,.2,.15,.49-.04,.67-6.96,6.18-18.73,4.65-19.23,4.58-.26-.04-.44-.27-.4-.53,.04-.26,.25-.44,.53-.4,.12,.02,11.84,1.54,18.48-4.35,.09-.08,.2-.12,.31-.12Z"/><circle class="t" cx="718.65" cy="356.9" r="3.27"/><circle class="t" cx="748.5" cy="350.83" r="3.27"/></g><path class="bt" d="M678.09,496.85h-5.78c-.26,0-.47-.21-.47-.47s.21-.47,.47-.47h5.33l2.01-35.52c.01-.26,.3-.47,.5-.45,.26,.01,.46,.24,.45,.5l-2.04,35.96c-.01,.25-.22,.45-.47,.45Z"/><path class="bt" d="M710.56,507.55c-14.98,0-26.6-10.67-26.77-10.82-.19-.18-.2-.48-.02-.67,.18-.19,.48-.2,.67-.02,.22,.21,22.57,20.69,44.94,4.04,.21-.16,.5-.11,.66,.1,.16,.21,.11,.5-.1,.66-6.65,4.95-13.29,6.72-19.38,6.72Z"/><path class="ao" d="M758.14,544.32s11.4-11.37,15.8-15.09c4.4-3.72,5.9-10.6,8.79-8.92,2.89,1.68-2.05,11.6-2.05,11.6,0,0,11.42-2.67,14.8-4.02,3.38-1.35,10.05-2.23,11.23,.17,1.18,2.4-15.53,7.76-15.53,7.76,0,0,14.52-3.13,16.08-1.15,1.56,1.98-16.32,8.68-16.32,8.68,0,0,15.32-4.1,16.8-3.37,1.48,.73,.61,2.65-4.46,5.42-5.07,2.77-10.96,4.29-10.96,4.29,0,0,10.98-2.07,12.39-1.86s3.19,1.53-4.76,4.83c-7.95,3.31-28.16,7.61-38.21,6.06l-3.59-14.39Z"/><path class="ao" d="M832.29,489.93s-14.11,4.44-13.74,6.5c.37,2.06,12.08,1.12,11.91,1.2-.17,.08-12.21,3.08-12.67,5.98-.46,2.9,12.97,1.21,12.97,1.21,0,0-11.5,1.99-11.7,3.99-.21,2,11,1.3,11.08,2.07,.07,.77-9.61,.64-9.98,3.12-.36,2.47,13.28,3.18,14.9,.86,1.62-2.32-.35-4.43-.35-4.43,0,0,2.29-4.18,.76-6.3,0,0,.88-6.45-1.85-7.39,0,0,3.01-4.84-1.31-6.8Z"/><path class="bt" d="M782.01,474.41c.32,.08,.7,.18,1.1,.31-2.1-7.87-5.96-14.14-6.22-14.55-.14-.22-.43-.28-.65-.15-.22,.14-.29,.43-.15,.65,.06,.1,3.78,6.13,5.92,13.74Z"/></g></g><g><circle class="bf" cx="908.17" cy="1733.48" r="195.58"/><g><path class="bn" d="M867.47,1629.21v158.99c0,5.65,3.55,10.23,7.92,10.23h251.82c4.37,0,7.92-4.58,7.92-10.23v-158.99c0-5.65-3.54-10.23-7.92-10.23h-251.82c-4.37,0-7.92,4.58-7.92,10.23Zm4.16,15.15h259.33v143.73c0,3.64-1.98,6.17-3.76,6.17h-251.82c-1.78,0-3.76-2.54-3.76-6.17v-143.73Z"/><g><g><path class="ap" d="M1051.18,1662.87c-2.85,5.2,3.53,9.85,8.12,10.81,6.12,1.27,2.13-7.19,.18-9.67-2.34-2.98-6.17-5.03-8.3-1.13Z"/><path class="ap" d="M1068.86,1666.06c-3.55,2.09-2.38,10.31,2.3,10.85,2.89,.33,3.31-5.55,2.74-7.66-.65-2.41-2.57-4.65-5.04-3.19Z"/><path class="ap" d="M1056.66,1692.71c1.19-2.99,4.27-3.45,7.26-2.86,1.37,.27,6.56,.8,7.21,2.36,.65,1.56-2.74,4.47-4.01,4.97-2.35,.92-5.76,.69-8.13-.48-1.47-.73-3.03-2.21-2.33-3.98Z"/><path class="ap" d="M1081.99,1696.23c2.42-1.03,4.44-2.66,5.52-5.1,.89-2.03,1.32-5.82-1.81-6.36-5.6-.96-7.01,7.87-4.08,11.34"/><path class="o" d="M1089.36,1717.19c-1.03-6.78-5.56-13.85-9.4-19.5-7.46-10.98-15.23-22.04-23.98-32.08"/><path class="o" d="M1072.28,1686.7c.33-5.27-1.56-10.81-1.85-16.15"/><path class="o" d="M1076.85,1693.45c-4.32-1.21-8.34-1.29-12.68-.36"/><path class="o" d="M1081.94,1700.68c-.31-3.37-.11-7.58,1.44-10.48"/></g><path class="bc" d="M1090.36,1706.66c.86,4.78,1.36,9.09,4.07,13.29,2.57,3.98,5.41,7.86,7.83,11.93,2.83,4.77,4.47,10.27,.72,14.62-4.46,5.17-18.54,4.03-19.3-4.47-.46-5.14,1.19-10.07,2.47-14.86,1.26-4.71,.59-8.96-.95-13.71-.97-3-1.82-7.06-3.71-9.69"/></g><g><polygon class="cb" points="986.43 1794.26 1120.01 1794.26 1116.83 1748.7 983.25 1748.7 986.43 1794.26"/><g><polygon class="h" points="990.18 1789.74 1115.63 1789.74 1113.08 1753.22 987.62 1753.22 990.18 1789.74"/><line class="h" x1="1113.47" y1="1771.48" x2="989.78" y2="1771.48"/><line class="g" x1="1061.59" y1="1762.72" x2="1040.44" y2="1762.72"/><line class="h" x1="1062.77" y1="1779.54" x2="1041.61" y2="1779.54"/></g></g><g><path class="cb" d="M900.71,1632.24c0,4.19,3.41,7.59,7.61,7.59s7.61-3.4,7.61-7.59c0-4.19-3.41-7.59-7.61-7.59s-7.61,3.4-7.61,7.59Z"/><path class="cb" d="M880.42,1632.24c0,4.19,3.41,7.59,7.61,7.59,4.2,0,7.61-3.4,7.61-7.59,0-4.19-3.41-7.59-7.61-7.59s-7.61,3.4-7.61,7.59Z"/><path class="a`" d="M911.99,1633.52h-7.05c-.71,0-1.28-.57-1.28-1.28s.57-1.28,1.28-1.28h7.05c.71,0,1.28,.57,1.28,1.28s-.57,1.28-1.28,1.28Z"/><g><path class="a`" d="M885.54,1636c-.33,0-.65-.12-.9-.37-.5-.5-.5-1.31,0-1.8l4.98-4.97c.5-.5,1.31-.5,1.8,0,.5,.5,.5,1.31,0,1.8l-4.98,4.97c-.25,.25-.58,.37-.9,.37Z"/><path class="a`" d="M890.52,1636c-.33,0-.65-.12-.9-.37l-4.98-4.97c-.5-.5-.5-1.31,0-1.8s1.31-.5,1.8,0l4.98,4.97c.5,.5,.5,1.31,0,1.8-.25,.25-.58,.37-.9,.37Z"/></g></g><g><g><path class="bc" d="M1055.96,1794.27s6.8-38.39,9.12-48.14c2.32-9.75,4.95-19.83-11.9-19.71-16.85,.12-82.44-.92-82.44-.92,0,0-15.49-.96-22.62,20.63-7.13,21.59-13.92,48.14-13.92,48.14h121.76Z"/><path class="s" d="M1059.32,1733.09s-.13,.19-.37,.54c-.24,.35-.6,.88-1.05,1.54-.22,.34-.48,.7-.74,1.11-.26,.41-.53,.86-.83,1.34-.29,.48-.61,.99-.94,1.53-.32,.54-.64,1.12-.98,1.73-.34,.6-.7,1.23-1.05,1.89-.34,.66-.7,1.35-1.06,2.05-.18,.35-.36,.71-.55,1.07-.17,.37-.35,.74-.53,1.12-.36,.75-.72,1.52-1.09,2.3-.35,.79-.7,1.6-1.05,2.42-.36,.81-.7,1.65-1.04,2.49-.7,1.68-1.32,3.41-1.96,5.14-.31,.87-.61,1.74-.91,2.61-.15,.43-.29,.87-.44,1.3-.14,.44-.27,.87-.41,1.3-.27,.87-.55,1.72-.8,2.57-.25,.85-.5,1.7-.74,2.52-.24,.83-.45,1.65-.67,2.45-.21,.8-.43,1.59-.62,2.35-.37,1.54-.73,2.99-1.03,4.34-.15,.67-.29,1.32-.43,1.93-.13,.62-.24,1.2-.36,1.75-.22,1.1-.41,2.06-.55,2.85-.28,1.58-.44,2.49-.44,2.49l.71,.15s.23-.89,.62-2.44c.19-.78,.44-1.72,.72-2.8,.14-.54,.29-1.11,.45-1.72,.17-.6,.34-1.24,.52-1.9,.35-1.33,.77-2.75,1.2-4.26,.21-.76,.45-1.53,.68-2.32,.24-.79,.47-1.6,.74-2.41,.26-.82,.52-1.65,.78-2.49,.26-.84,.56-1.68,.84-2.53,.14-.43,.29-.85,.43-1.28,.15-.43,.3-.85,.45-1.28,.3-.86,.6-1.72,.91-2.58,.32-.85,.64-1.71,.96-2.56,.16-.43,.32-.85,.49-1.27,.17-.42,.33-.84,.5-1.26,.64-1.68,1.36-3.29,2.02-4.87,.35-.78,.69-1.55,1.02-2.3,.17-.38,.33-.75,.5-1.12,.17-.36,.34-.72,.51-1.08,.33-.71,.65-1.4,.97-2.07l.95-1.91c.3-.61,.59-1.21,.87-1.76,.29-.55,.56-1.07,.82-1.56l.72-1.38c.23-.42,.45-.81,.64-1.16,.39-.7,.69-1.26,.89-1.64,.2-.38,.31-.58,.31-.58l-.62-.38Z"/></g><path class="by" d="M1007.04,1663.54c5.14,10.35,8.02,26.5,8.48,37.94,1.11,27.35-19.37,43.07-45.42,44.59-4.04,.24-6.25-.05-8.66-2.88-2.48-2.92-4.19-6.16-8.22-7.11-6.92-1.64-13.02-.79-17.57-7.5-3.87-5.69-1.51-11.58,3.78-15.52,4.07-3.04,4.32-4.67,3.73-9.44-.52-4.22-.94-8.54,1.55-12.27,2.07-3.1,5.6-3.94,8.04-6.48,2.22-2.3,2.06-4.84,2.53-7.85,1.24-7.94,5.04-16.82,11.66-21.74,6.73-5,15.72-6.42,23.87-4.36,8.41,2.13,13.32,6.74,16.24,12.61Z"/><path class="ah" d="M952.19,1794.27h69.68c2.85-12.55,5.24-25.17,12.47-37.11,3.71-6.13,3.94-15.94-1.32-21.89-5.54-6.26-15.46-3.08-22.83-5.42-1.71-.54-3.24-1.41-4.58-2.51-3.97-3.25-6.32-8.53-6.81-13.32-.13-1.27-.47-14.64,.78-14.64-.02,0-21.26,2.77-21.26,2.77,2,0-1.99,16.39-2.34,17.66-3.05,10.95-11.69,10.97-21.94,13.73-10.15,2.73-2.77,17.26-1.76,25.44,1.47,11.85,.65,23.56-.1,35.3Z"/><path class="ae" d="M977.48,1713.35s9.2,5.24,20.23-8.19c0,0-6.5,16.62-22.07,14.89l1.84-6.7Z"/><path class="ah" d="M983.52,1713.68c9.8-2.23,15.8-6.76,17.73-19.32,1.46-9.52,2.49-26.66-4.16-34.18-6.29-7.12-20.5-5.98-27.65,.47-12.44,11.22-2.71,56.85,14.09,53.03Z"/><path class="ca" d="M980.68,1699.27h0c-.15,.03-.3-.06-.34-.2-.31-1.29-.66-1.5-1.6-2.07-.15-.09-.31-.19-.49-.3-.87-.55-1.46-1.33-1.59-2.1-.1-.57,.06-1.12,.45-1.6,.3-.37,.62-.58,.9-.77,.47-.31,.78-.52,.82-1.32,.09-2.06-.32-4.36-.73-6.59-.17-.92-.32-1.79-.44-2.63-.02-.15,.08-.29,.24-.31,.15-.02,.29,.08,.31,.23,.12,.83,.28,1.7,.44,2.61,.41,2.26,.83,4.6,.73,6.71-.05,1.07-.56,1.41-1.06,1.74-.26,.18-.53,.36-.78,.66-.3,.36-.41,.76-.34,1.18,.11,.62,.61,1.26,1.34,1.73,.17,.11,.33,.2,.48,.29,.99,.6,1.48,.9,1.85,2.41,.04,.14-.05,.29-.2,.33Z"/><path class="bd" d="M983.96,1708.15c-.11,.03-.24-.02-.3-.12-.07-.13-.03-.29,.1-.36,.22-.13,.43-.26,.66-.41,.14-.09,.28-.18,.42-.27,.13-.08,.3-.04,.38,.08,.08,.12,.04,.29-.08,.37-.14,.09-.27,.17-.41,.26-.22,.14-.45,.29-.68,.43-.02,.01-.04,.02-.07,.03Z"/><path class="ca" d="M971.11,1685.2c2.16,.12,3.21,5.75,.69,5.81-2.24,.05-2.89-5.93-.69-5.81Z"/><path class="ca" d="M989.21,1683.15c.94,1.35,.98,4.06,.17,4.96-1.12,1.25-2.47,.28-2.88-.93-.4-1.17-.52-4.49,1.08-4.78,.7-.13,1.24,.2,1.63,.75Z"/><path class="ah" d="M1000.22,1680.01c1.12-2.42,2.01-3.29,3.66-3.52,7.47-1.07,4.01,15.87-2.73,16.51"/><path class="ca" d="M1003.25,1682.2c.3-.68,.65-1.28,1.03-1.74,.09-.11,.08-.28-.04-.37-.12-.09-.29-.07-.38,.04-1.51,1.83-2.59,5.6-1.78,7.91,.05,.13,.19,.2,.32,.17h.02c.14-.05,.21-.2,.17-.34-.15-.43-.22-.92-.24-1.44,.02,.14,.16,.24,.3,.22,.12-.02,.25-.04,.36-.07,.95-.24,1.6-.91,1.72-1.82,.14-1.04-.47-2.05-1.48-2.55Zm-.67,3.91c-.14,.02-.23,.13-.23,.26-.02-1.17,.25-2.51,.7-3.68,.9,.46,1.23,1.33,1.15,1.99-.1,.78-.71,1.32-1.62,1.43Z"/><path class="ba" d="M950.14,1794.27h72.94l.76-7.02c12.91-1.5,26.98-10.55,26.98-10.55,0,0-8.3-31.12-12.9-39.71-4.61-8.59-19.36-7.61-29.19-9.98-9.83-2.37-3.64-13.85-10.24-11.32-4.85,1.86-11.58,1.69-20.24,1.36-8.66-.32-5.16,3.02-7.48,8.45-2.31,5.43-19.2,5.67-26.22,12.04-7.02,6.37-15.64,38.37-15.64,38.37,6.51,5.69,21.92,9.32,21.92,9.32l-.69,9.04Z"/><path class="by" d="M986.62,1654.45c-9.85-1.89-19.47,.7-22.52,10.81-1.6,5.32-2.47,11.07-1.04,16.53-.69-3.62,1.81-9.43,4.46-11.93,1.9-1.79,3.75-2.59,4.91-5.05,.52-1.1,.6-2.55,1.79-3.11,1.69,5.49,8.92,7.25,14,8.11,2.66,.45,6.13,.85,7.77,3.13,1.95,2.73,1.41,6.18,1.62,9.29,.18,2.7,2.08,4.14,2.97,.84,.46-1.68,.28-3.24,1.36-4.65,1.11-1.45,2.89-2.03,4.65-1.44,.63-4.46,1.02-6.92-2.01-10.93-4.63-6.14-10.26-10.1-17.97-11.58Z"/><g><line class="k" x1="1024.16" y1="1786.67" x2="1026.17" y2="1757.27"/><path class="k" d="M952.81,1752.16c.24,3.86,.27,7.64-.57,11.45-.87,3.99-2.72,7.51-2.31,11.73,.28,2.85,1.41,5.63,1.19,8.48"/><path class="k" d="M974.68,1728.27c7.6,4.1,19.44,.71,26.78-2.46"/><line class="k" x1="1029.94" y1="1755.43" x2="1028.04" y2="1768.45"/><line class="k" x1="949.87" y1="1749.91" x2="949.87" y2="1760.33"/></g><path class="ah" d="M1048.04,1794.27c-1.23-8.19-2.23-14.69-2.23-14.69,0,0-10.6,4.47-19.63,7.1l1.7,7.6h20.16Z"/><path class="ah" d="M922.5,1794.27l-17.98-28.19-10.69,7.93s2.84,9.58,7.73,20.27h20.94Z"/><path class="ah" d="M947.08,1794.27c1.44-5.23,2.38-9.35,2.38-9.35,0,0-11.89-4.58-17.78-6.99l-5.3,16.34h20.7Z"/><path class="ah" d="M904.52,1766.07s.48-7.31-1.99-15.1c-2.47-7.79-2.06-12.09-4.32-9.02-2.26,3.07,1.03,9.43-1.23,9.22-2.26-.21-2.47-4.25-5.76-10.22-3.29-5.97-5.14-4.48-3.7,0,0,0-1.44-5.6-3.49-3.94-2.06,1.66,0,6.78,0,6.78,0,0-3.9-2.95-2.67,3.45,1.23,6.39,1.85,7.87,1.85,7.87l-3.5-5.21s-3.49-.47,0,5.52c3.5,5.99,14.11,19.52,14.11,19.52l10.69-8.88Z"/><path class="m" d="M895.34,1753.64c-.36,3.5,.57,6.74,2.87,9.43"/><path class="m" d="M884.65,1754.87c1.66-2.35,4.39-4.27,7.2-4.92"/><path class="m" d="M883.73,1743.19c.56,3.04,1.91,5.86,3.29,8.61"/><path class="m" d="M886.7,1739.29c.49,3.73,2.34,7.47,3.91,10.86"/><path class="ab" d="M987.32,1700.09c3.68,3.74-11.61,7.5-10,2.54,.43-1.31,9.22-3.34,10-2.54Z"/><path class="by" d="M965.32,1680.76c-1.75-2.1,10.24-4.04,9.97-.23-.06,.85-9.1,1.27-9.97,.23Z"/><path class="by" d="M985.85,1679.5c-2.54,.7-3.78-.18-1.59-2.1,1.33-1.16,9.27-2.96,10.01-.61,.56,1.78-7.31,2.4-8.42,2.71Z"/></g></g><g><g><circle class="bn" cx="1019.16" cy="1768.86" r="15.45"/><g><path class="a`" d="M1021.31,1774.65h-8.44c-1.21,0-2.19-.98-2.19-2.19v-7.22c0-1.21,.98-2.19,2.19-2.19h8.44c1.21,0,2.19,.98,2.19,2.19v7.22c0,1.2-.98,2.19-2.19,2.19Z"/><path class="a`" d="M1027.15,1773.53c-.14,0-.28-.07-.37-.19l-3.07-4.14c-.15-.2-.15-.49,0-.68l3.07-4.14c.12-.17,.33-.23,.51-.17,.21,.07,.34,.27,.34,.51v8.28c0,.24-.14,.45-.34,.51-.05,.02-.09,.02-.14,.02Z"/></g></g><g><circle class="bn" cx="933.34" cy="1768.86" r="15.45"/><g><path class="a`" d="M933.93,1775.03c-.2,0-.4-.09-.54-.24l-2.26-2.27h-4.49c-.51,0-.92-.41-.92-.92v-5.48c0-.51,.41-.92,.92-.92h4.49l2.27-2.28c.21-.22,.52-.29,.8-.19,.29,.11,.48,.39,.48,.71v10.83c0,.32-.19,.6-.48,.71-.09,.03-.17,.05-.26,.05Z"/><path class="a`" d="M935.99,1771.03c.95-1.22,.95-3.13,0-4.35-.14-.18-.14-.43,0-.62h0c.21-.32,.67-.33,.88-.03,1.13,1.62,1.13,4.02,0,5.64-.21,.3-.67,.29-.88-.02h0c-.13-.2-.13-.45,0-.63Z"/><path class="a`" d="M938.38,1773.32c2.09-2.43,2.09-6.49,0-8.91-.17-.19-.19-.47-.05-.67v-.02c.22-.3,.66-.32,.88-.03,2.34,2.87,2.34,7.5,0,10.37-.23,.28-.67,.27-.87-.03v-.02c-.16-.21-.13-.48,.04-.67Z"/></g></g><g><circle class="bn" cx="976.25" cy="1768.86" r="15.45"/><g><path class="a`" d="M982.06,1769.24h0c-.2,0-.37,.16-.38,.36-.35,6.75-10.48,6.75-10.83,0-.01-.2-.18-.36-.38-.36h0c-.22,0-.4,.19-.38,.41,.17,3.44,2.57,5.35,5.21,5.73,.19,.03,.33,.19,.33,.38v1.25c0,.21,.17,.38,.38,.38h.54c.21,0,.38-.17,.38-.38v-1.25c0-.19,.14-.35,.33-.38,2.64-.38,5.04-2.28,5.21-5.73,.01-.22-.16-.41-.38-.41Z"/><path class="a`" d="M976.25,1772.14c-1.84,0-3.34-1.5-3.34-3.34v-5.13c0-1.84,1.5-3.34,3.34-3.34s3.34,1.5,3.34,3.34v5.13c0,1.84-1.5,3.34-3.34,3.34Z"/></g></g><g><circle class="bn" cx="1062.07" cy="1768.86" r="15.45"/><path class="am" d="M1056.37,1772.66c-2.11,.34-3.46-.13-4.11-1.65-.41-.99-.39-2.01,.16-2.94,.76-1.32,2.6-2.44,4.95-2.82,1.5-.24,3.05-.3,4.55-.29,.7,0,1.4,.03,2.1,.06h.19c2.78,.06,7.38,.93,7.89,3.75,.26,1.36-.06,2.42-.8,3.09-.54,.49-1.53,.98-3.35,.77-2.13-.22-2.83-.72-3.28-2.6-.25-1.01-.71-1.18-2.38-1.22-.16,0-.33,0-.51-.02-.64-.02-1.37-.03-1.79,.22-.54,.33-.6,.76-.68,1.3-.1,.76-.25,1.76-1.94,2.14-.35,.08-.68,.15-.99,.19Z"/></g></g><ellipse class="bx" cx="804.65" cy="1871.45" rx="136.23" ry="18.85"/><g><g><path class="bl" d="M781.54,1683.67c-.51-.66-1.01-1.32-1.49-1.99-7.87-10.97-12.36-23.57-12.09-37.15,.37-18.92,8.85-45.06,29.69-51.09,14.47-4.19,31.72,2.05,40.72,13.68,9.57,12.36,6.82,28.22,14.18,41.03,6.25,10.9,18.11,18.55,19.66,31.87,2.91,24.88-19.43,40.09-42.75,32.89-6.98-2.15-11.69-8.17-17.97-10.51-6.8-2.53-11.46-.66-17.33-5.72-4.5-3.88-8.93-8.28-12.62-13.02Z"/><path class="y" d="M805.33,1681.55c-2.14,1.78-4.55,3.34-7.31,3.49-3.6,.2-7.46-1.1-10.49-3.02-4.22-2.67-7.08-6.62-8.8-11.12,8.82-13.13,9.47-30.48,9.47-30.48l21.06,13.74c-3.53,12.75-4.17,21.65-3.93,27.38Z"/><path class="r" d="M806.54,1666.1s-10.39,3.22-16.65-8.7c0,0,3.6,14.71,15.63,16.52l1.02-7.82Z"/><path class="y" d="M807.66,1665.84c-29.74,8.08-31.85-75.15,10.68-64.78,29.91,7.3,12.73,58.42-10.68,64.78Z"/><path class="bl" d="M790.5,1603.8c8.59-7.96,20.57-10.92,31.42-5.71,6.02,2.89,10.56,8.19,12.36,14.63,1.55,5.57,2.46,14.68-1.29,19.5,1.57-2.02,.29-12.03-1.98-13.46-2.96-1.86-8.1,1.04-10.86,1.78-4.83,1.29-7.06-1.45-11.31-3.21-6.66-2.75-8.37,2.28-11.05,7.16-3.15,5.73-11,10.79-12.82,2.02-1.86-8.97-1.52-16.17,5.54-22.71Z"/><path class="y" d="M793.99,1630.78c-1.79-14.33-17.85,.58-7.32,10.78"/><path class="bl" d="M826.06,1632.26c-1.79,.34-3.54,1.81-.88,2.24,2.42,.4,4.36,1.14,6.54,2.3,1.79,.95,2.66-.12,1.67-1.99-1.3-2.44-4.86-3.01-7.33-2.55Z"/><path class="bl" d="M810.04,1629.08c.98,.32,5.3,2.35,5.97,1.26,1.26-2.03-3.58-4.45-4.82-4.93-2.01-.79-5.57-1.62-7.52-.24-1.75,1.24,4.85,3.37,5.81,3.72,.18,.06,.36,.13,.55,.19Z"/><path class="f" d="M788.46,1628.85c1.19,2.48,.84,4.88-.72,7.11"/><path class="f" d="M788.82,1630.66c-2.84,0-2.47,3.09-.48,4.22"/><path class="y" d="M749.4,1799.52c.54-.4,1.02-.81,1.45-1.23,10.16-9.99,10.29-23.15,10.02-35.88-.27-12.73-17.06-59.59-19.23-82.17-2.17-22.58,19.23-14.93,19.23-14.93,12.46,2.31,43.58,10.7,43.58,10.7,0,0,5.45,6.5,19.37,9.06,13.93,2.55,18.58,10.72,20.6,27.78,2.02,17.06,5.02,46.55,5.02,46.55,0,0,2.44,18.72,5.42,35.65,.31,1.75,.77,3.22,1.35,4.48h-106.81Z"/><path class="bk" d="M686.69,1836.77c7.22-24.56,61.45-34.38,61.45-34.38,7.04-11.76,12.48-26.92,12.48-26.92l.3-6.02h67.4l.36,15.52c.36,15.52,19.38,17.42,19.38,17.42,0,0,54.17,2.64,69.28,19.52,9.48,10.59,12.43,45.37-50.38,45.91-19.6,.17-32.97,.58-43.74,1.14l1.02,12.33s-82.79-6.67-82.74-6.69c-41.03-.75-60.12-19.75-54.8-37.83Z"/><path class="y" d="M821.89,1855.23c.3,.21,13.31-.47,25.42-1.53,12.11-1.06,18.66-1.27,19.46,2.76,.79,4.03-1.19,3.4-1.19,3.4,0,0,2.18,9.55-3.18,13.58-5.36,4.03-39.39-3.61-39.39-3.61l-1.12-14.6Z"/><path class="y" d="M775.87,1781.06c3.64,3.18,10.11,8.82,12.24,10.62,3.01,2.56,1.83,5.57,1.83,5.57,0,0,2.56,5.39,3.2,6.58,.64,1.19,1.46,6.4,1.92,8.86,.46,2.47-.64,4.11-2.28,1.55-1.64-2.56-1.83-6.85-3.65-8.13l-.18,5.03s-.55,2.01-2.83,.37c0,0-1.19,2.38-3.11,.91l-1.01-1.64s-1.01,1.92-2.74,.37c-1.74-1.55-5.67-8.5-5.67-8.5,0,0-4.29-2.56-6.85-7.22-1.63-2.96-2.33-6.01-2.62-7.84,2.99-3.55,7.1-6.18,11.76-6.53Z"/><path class="l" d="M789.9,1797.46c-.98-1.68-2.44-3.39-3.85-4.82"/><path class="l" d="M789.18,1806.37c-.1-2.15-2-4.25-2.77-6.26"/><path class="l" d="M786.05,1811.31c0-4.27-.76-6.44-2.77-10.12"/><path class="l" d="M782.07,1810.94c-.19-2.68-2.27-6.21-3.49-8.55"/><g><g><path class="i" d="M727.2,1824.68c-2.96,.18-5.84-.43-8.8-.28"/><path class="i" d="M821.89,1849s-20.5-6.29-39.81-8.57c-19.31-2.29-33.93-10.21-60.48-12.55"/><path class="i" d="M871.65,1823.03s-20.03,1.69-41.16,9.27c-21.13,7.58-38.2,9.21-38.2,9.21"/></g><path class="i" d="M748.41,1802.5c5.11-.14,10.04,1.92,14.9,3.25"/></g><path class="y" d="M749.42,1664.54s-9.31-.09-14.19,12.55c-4.88,12.64-29.88,68.26-29.88,68.26,0,0-5.06,7.95,2.71,16.79,7.76,8.85,53.01,22.83,56.06,25.44l11.76-6.53-6.7-5.58s-31.06-19.61-40.81-27.92l20.04-36.87s13.03-41.36,1.01-46.14Z"/><polygon class="ap" points="831.97 1722.9 821.92 1708.96 820.21 1684.27 818.72 1683.87 820.21 1707.73 800.63 1719.38 769.94 1699.83 769.16 1667.08 767.51 1666.64 767.95 1700.05 748.41 1717.81 758.08 1763.25 828.82 1763.5 831.97 1722.9"/><path class="q" d="M756.26,1710.67c2.57,2.7,5.39,5.26,7.15,8.57,2.39,4.49,1.6,9.44,.4,14.16-.58,2.28-1.21,4.6-1.29,6.97-.09,2.55,.43,5.07,1.6,7.35,1.9,3.72,5.02,6.67,8.48,8.94,4.44,2.91,9.32,4.87,14.28,6.69l-28.8-.1-9.66-45.44,7.84-7.13Z"/><g><polygon class="b`" points="792.94 1815.31 814.23 1747.56 917.61 1747.8 899.4 1815.53 899.4 1819.41 754.42 1819.41 754.42 1815.31 792.94 1815.31"/><path class="bu" d="M852.93,1783.67c-1.38,4.53,1.16,8.19,5.69,8.19s9.32-3.67,10.7-8.19c1.38-4.53-1.16-8.19-5.69-8.19s-9.32,3.67-10.7,8.19Z"/><line class="j" x1="896.5" y1="1815.53" x2="798.23" y2="1815.53"/></g><path class="e" d="M752.29,1704.37c-1.31,2.42-2.86,4.72-4.1,7.18"/><path class="e" d="M728.56,1747.14c-3.44,.31-7.19,.94-10.11,2.93"/><line class="e" x1="830.94" y1="1720.77" x2="833.14" y2="1710.96"/></g><g><path class="v" d="M812.92,1651.97c-1.03-.87-2.38-1.25-3.71-1.5-1.33-.25-2.69-.41-3.93-.92,.04,1.05,.75,1.89,1.46,2.59,1.44,1.44,3.05,2.72,4.86,3.63,.56,.28,2.07,1.21,2.71,.94,.69-.29,.31-1.75,.17-2.26-.27-.98-.81-1.86-1.56-2.49Z"/><path class="bw" d="M813.54,1649.88c-.12-.05-.2-.17-.2-.31,0-.2,.15-.37,.34-.38,1.52-.08,3.01-.44,4.44-1.06,.42-.18,.83-.4,1.02-.76,.31-.58-.04-1.31-.38-2.02l-.06-.13c-1.95-4.1-.86-7.06,1.37-10.23,.11-.16,.33-.21,.49-.09,.15,.11,.18,.34,.07,.5-2.14,3.04-3.1,5.69-1.3,9.49l.06,.13c.38,.79,.84,1.76,.36,2.68-.3,.57-.87,.88-1.38,1.1-1.51,.66-3.08,1.03-4.68,1.12-.06,0-.11,0-.15-.03Z"/><path class="bw" d="M812.19,1656.38c-2.95-1.35-5.56-3.49-7.47-6.18-.11-.16-.08-.38,.08-.5,.16-.12,.37-.09,.48,.06,2.28,3.2,5.57,5.6,9.26,6.74,.18,.05,.28,.26,.22,.45-.06,.19-.26,.3-.44,.24-.72-.22-1.43-.5-2.12-.81Z"/><path class="bw" d="M808.49,1658.79c-1.78-.81-3.38-2.08-4.59-3.66-.12-.15-.09-.38,.06-.51,.15-.13,.37-.11,.49,.05,1.4,1.83,3.35,3.22,5.51,3.91,.18,.06,.28,.26,.21,.45-.06,.19-.26,.3-.44,.24-.42-.14-.84-.3-1.24-.48Z"/><path class="bw" d="M808.3,1636.48c-.43,1.19-.25,2.33,.39,2.55s1.51-.56,1.94-1.74c.43-1.19,.25-2.33-.39-2.55-.64-.22-1.51,.56-1.94,1.74Z"/><path class="bw" d="M821.79,1642.29c-.54,1.14-.48,2.3,.14,2.6,.62,.29,1.55-.39,2.09-1.53,.54-1.14,.48-2.3-.14-2.6-.62-.29-1.55,.39-2.09,1.53Z"/><path class="bw" d="M808.43,1636.73c-.9-.41-1.66-1.12-2.13-2.02-.09-.17-.03-.39,.14-.49,.17-.1,.38-.04,.47,.13,.5,.95,1.36,1.65,2.37,1.92,.18,.05,.29,.25,.23,.44-.06,.19-.25,.31-.43,.26-.22-.06-.44-.14-.64-.23Z"/><path class="bw" d="M823.76,1643.39c-.07-.03-.14-.07-.21-.1-.17-.09-.23-.3-.14-.48,.09-.18,.3-.26,.47-.16,.84,.44,1.83,.56,2.79,.35,.19-.04,.37,.08,.4,.28,.03,.19-.09,.39-.28,.43-1.03,.23-2.09,.12-3.02-.31Z"/></g></g></g><g><g><circle class="bg" cx="389.21" cy="1167.08" r="266.4"/><path class="c`" d="M571.32,1126.6c-.34-25.65-.12-72.74-1.06-87.66-.45-7.24-3.66-10.08-10.52-10.9-5.78-.68-47.39-1.05-64.25-.09-8.7,.5-8.79,8.68-9.28,11.76-1.79,11.26-.67,42.5,.02,56.36,.12,2.29-.21,13.86,11.76,14.62,10.39,.65,38.1,.22,45.56,.32,5.23,.07,27.89,25.64,27.76,15.59h0Z"/><ellipse class="bx" cx="592.38" cy="1316.5" rx="136.23" ry="18.85"/><g><g><g><circle class="cm" cx="262.2" cy="1092.75" r="217.7"/><circle class="cn" cx="262.2" cy="1092.75" r="177.77"/><circle class="co" cx="262.2" cy="1092.75" r="137.83"/><circle class="ac" cx="262.2" cy="1092.75" r="97.9"/></g><path class="bn" d="M389.68,1290.45H101.85c-6.81,0-12.35-5.54-12.35-12.35v-198.5c0-6.81,5.54-12.35,12.35-12.35H389.68c6.81,0,12.35,5.54,12.35,12.35v198.5c0,6.81-5.54,12.35-12.35,12.35Zm-287.82-217.68c-3.76,0-6.82,3.06-6.82,6.82v198.5c0,3.76,3.06,6.82,6.82,6.82H389.68c3.76,0,6.82-3.06,6.82-6.82v-198.5c0-3.76-3.06-6.82-6.82-6.82H101.85Z"/><path class="bo" d="M386.52,1071.2H105.01c-7.04,0-12.74,5.7-12.74,12.74v13.84H399.26v-13.84c0-7.04-5.7-12.74-12.74-12.74Z"/><g class="ck"><g><path class="ar" d="M300.05,1166.96s18.51,2.26,23.36,25.56c4.85,23.29,3.88,119.07,3.88,119.07,0,0-23.1,14.11-27.24,8.66s-11.7-120.29-9.21-134.84c2.49-14.56,9.21-18.44,9.21-18.44Z"/><path class="u" d="M258.1,1156.05s11.25-19.99,45.02-8.34c0,0,22.55,10.2,20.28,44.81,0,0-21.6,15.2-40.24,10.35-18.64-4.85-25.07-46.82-25.07-46.82Z"/><path class="bm" d="M213.14,1049.19c1.35-19.48,29.86-18.11,29.86-18.11,24.63-20.18,46.42,1.3,50.36,7.82,3.44,5.7,8.99,19.89-8.5,29.89-7.01,4.01-4.91,3.2-13.78,6.75-4.17,1.67-26.33,22.16-30.36,28.13,5.09,7.74,9.78,23.64,7.17,25.63-5.88,5-15.87-20.79-15.87-20.79-17.88-14.23-35.55-47.67-18.89-59.32Z"/><path class="u" d="M278.76,1144.88s5.62,4.94,19.33,23.43c9.76,13.16,10.43,161.94,10.43,161.94l-34.16,3.98-55.23-4.01-31.41-6.34s-13.82-134.26,5.92-159.27c19.74-25.01,67.79-19.74,67.79-19.74h17.33Z"/><path class="ao" d="M209.01,1220.54s5.98,41.69,35.78,45.9c29.8,4.22,58.33,1.87,58.33,1.87v14.09s-61.86,20.4-94.11,0c-32.25-20.4-33.56-61.86-33.56-61.86h33.56Z"/><path class="u" d="M207.5,1151.49c-21.74,10.92-27.89,17.06-34.91,72.34h41.24l1.75-39.49-6.18-33.78-1.91,.93Z"/><g><path class="ar" d="M292.41,1083.77s2.6-4.55,5-2.92c6.11,4.14,.21,10.55-3.58,12.1l-1.42-9.18Z"/><path class="ao" d="M252.34,1033.28c-17.72,2.33-31.12,17.82-30.9,35.7,.07,5.88,1.56,11.36,4.1,16.18,5.71,12.05,10.41,21.75,15.92,28.68,5.59,7.02,8.5,15.79,7.82,24.74l-.35,4.5c21.91,12.25,29.26,.98,29.26,.98l-1.25-19.06h0c22.18-4.13,16.5-45.19,15.71-57.38h-.03c-.01-.45-.03-.91-.06-1.37-1.34-20.41-19.62-35.67-40.22-32.97Z"/><path class="ao" d="M237.03,1094.41c-.65-1.11-1.71-1.92-2.93-2.32-2.52-.83-6.91-1.63-9.69,1.54-4.08,4.65,5.46,15.64,13.76,9.32,0,0,2.32-2.64-1.13-8.54Z"/><path class="bm" d="M246.65,1084.74c-.37,.05-.75-.05-1.05-.31-.53-.48-.58-1.29-.1-1.82,.14-.16,3.59-3.9,9.34-4.5,.71-.07,1.34,.44,1.42,1.15,.07,.71-.5,1.36-1.15,1.42-4.79,.5-7.65,3.62-7.68,3.65-.21,.23-.49,.37-.77,.42Z"/><path class="bm" d="M277.96,1074.93c-.34-.15-.61-.45-.72-.83-.19-.69,.21-1.4,.9-1.59,.21-.06,5.08-1.38,10.29,1.24,.64,.32,.9,1.1,.58,1.73-.32,.64-1.12,.89-1.73,.58-4.31-2.17-8.39-1.07-8.44-1.06-.3,.08-.61,.05-.88-.07Z"/><path class="bm" d="M272.23,1100.59c3.63-.8,4.67-3.63,4.68-5.22,0-.28-.1-.55-.29-.75-3.55-3.8-3.6-9.69-3.6-9.75,0-.6-.49-1.09-1.09-1.09-.59,0-1.09,.48-1.09,1.08,0,.27,.03,6.45,3.85,10.87-.16,.87-.91,2.84-4.41,2.9-.61,.01-1.08,.5-1.07,1.1,.01,.6,.5,1.08,1.1,1.07,.71-.01,1.34-.09,1.92-.21Z"/><path class="t" d="M283.12,1104.81c.13,0,.25,.05,.34,.15,.17,.19,.15,.48-.04,.65-6.75,5.99-18.17,4.51-18.65,4.44-.25-.04-.42-.27-.39-.52,.03-.25,.24-.43,.52-.39,.12,.02,11.48,1.49,17.92-4.22,.09-.08,.2-.11,.3-.11Z"/><circle class="t" cx="254.93" cy="1088.55" r="3.18"/><circle class="t" cx="283.88" cy="1082.66" r="3.18"/></g><path class="bt" d="M215.6,1224.29h-5.61c-.25,0-.46-.21-.46-.46s.21-.46,.46-.46h5.17l1.95-34.45c.01-.25,.29-.46,.48-.43,.25,.01,.45,.23,.43,.48l-1.97,34.88c-.01,.24-.21,.43-.46,.43Z"/><path class="ao" d="M293.23,1270.33s11.05-11.02,15.32-14.64c4.27-3.61,5.72-10.28,8.53-8.65,2.8,1.63-1.99,11.25-1.99,11.25,0,0,11.08-2.59,14.36-3.9,3.28-1.31,9.75-2.17,10.9,.16,1.15,2.33-15.06,7.53-15.06,7.53,0,0,14.08-3.04,15.6-1.12,1.52,1.92-15.83,8.42-15.83,8.42,0,0,14.86-3.98,16.3-3.27,1.44,.71,.59,2.57-4.33,5.26-4.92,2.69-10.63,4.16-10.63,4.16,0,0,10.65-2.01,12.01-1.81,1.36,.2,3.09,1.48-4.62,4.69-7.71,3.21-27.31,7.38-37.06,5.87l-3.49-13.96Z"/><path class="bm" d="M257.41,1060.62c13.44-12.29,27.31,5.32,35.04-3.03,6.33-6.83-28.82-40.89-36.34-31.19-8.63,11.11-48.83,4.06-42.51,58.08,.79,6.72,7.67,6.48,14.36,7.41,2.99,.42,4.89,2.68,6.6,6.04,.21,.41,.67,.64,1.12,.52,1.37-.36,3.49-1.47,1.02-7.35-3.46-8.23-12.34-21.71-3.31-25,7.87-2.86,14.2,3.52,24.03-5.47Z"/><path class="bs" d="M269.26,1090.95c.45-1.9,1.93-3.44,3.84-3.89s4.01,.43,5.22,1.99c.31,.4,1,.33,1.32,0,.39-.39,.31-.92,0-1.32-1.62-2.08-4.47-3.06-7.03-2.47s-4.56,2.7-5.15,5.19c-.27,1.17,1.52,1.67,1.8,.5h0Z"/><path class="bs" d="M286.9,1092.59c-5.66,0-10.26-4.6-10.26-10.26s4.6-10.27,10.26-10.27,10.27,4.6,10.27,10.27-4.6,10.26-10.27,10.26Zm0-18.66c-4.63,0-8.4,3.77-8.4,8.4s3.77,8.4,8.4,8.4,8.4-3.77,8.4-8.4-3.77-8.4-8.4-8.4Z"/><path class="bs" d="M258.74,1101.06c-5.66,0-10.26-4.6-10.26-10.26s4.6-10.27,10.26-10.27,10.27,4.6,10.27,10.27-4.6,10.26-10.27,10.26Zm0-18.66c-4.63,0-8.4,3.77-8.4,8.4s3.77,8.4,8.4,8.4,8.4-3.77,8.4-8.4-3.77-8.4-8.4-8.4Z"/><path class="bs" d="M248.57,1092.76c-2.95-.04-5.9-.14-8.84-.3-1.42-.08-2.84-.17-4.26-.27-.71-.05-1.42-.11-2.13-.17-.41-.03-.81-.07-1.22-.1-.2-.02-.41-.04-.61-.05-.38-.1-.35,.06,.1,.49,0-1.2-1.87-1.2-1.87,0,0,1.61,2.2,1.42,3.28,1.51,1.72,.15,3.45,.27,5.17,.38,3.45,.21,6.91,.34,10.36,.39,1.2,.02,1.2-1.85,0-1.87h0Z"/></g></g><g><g><circle class="bn" cx="272.58" cy="1243.05" r="18.93"/><g><path class="a`" d="M275.21,1250.14h-10.33c-1.48,0-2.68-1.2-2.68-2.68v-8.84c0-1.48,1.2-2.68,2.68-2.68h10.33c1.48,0,2.68,1.2,2.68,2.68v8.84c0,1.48-1.2,2.68-2.68,2.68Z"/><path class="a`" d="M282.37,1248.77c-.17,0-.34-.09-.46-.24l-3.76-5.07c-.18-.24-.18-.6,0-.84l3.76-5.07c.15-.2,.4-.29,.63-.21,.25,.08,.42,.34,.42,.63v10.14c0,.29-.17,.55-.42,.63-.06,.02-.11,.03-.17,.03Z"/></g></g><g><circle class="bn" cx="167.45" cy="1243.05" r="18.93"/><g><path class="a`" d="M168.18,1250.61c-.25,0-.49-.1-.67-.3l-2.77-2.78h-5.5c-.62,0-1.13-.51-1.13-1.13v-6.71c0-.62,.51-1.13,1.13-1.13h5.5l2.78-2.79c.25-.27,.63-.36,.97-.23,.36,.14,.59,.48,.59,.87v13.26c0,.39-.23,.73-.59,.87-.1,.04-.21,.06-.32,.06Z"/><path class="a`" d="M170.7,1245.71c1.17-1.49,1.17-3.84,0-5.33-.17-.22-.17-.53,0-.76h0c.26-.39,.82-.41,1.08-.03,1.38,1.99,1.38,4.92,0,6.91-.26,.37-.82,.35-1.08-.02h0c-.16-.24-.16-.55,0-.77Z"/><path class="a`" d="M173.62,1248.51c2.56-2.97,2.56-7.95,0-10.92-.2-.23-.24-.57-.06-.83l.02-.02c.25-.37,.79-.39,1.07-.04,2.86,3.52,2.86,9.19,0,12.7-.28,.34-.82,.33-1.07-.04l-.02-.02c-.18-.26-.14-.59,.06-.83Z"/></g></g><g><circle class="bn" cx="220.02" cy="1243.05" r="18.93"/><g><path class="a`" d="M227.13,1243.52h0c-.25,0-.46,.2-.47,.44-.43,8.27-12.84,8.27-13.27,0-.01-.25-.22-.44-.47-.44h0c-.27,0-.49,.23-.47,.5,.21,4.21,3.15,6.55,6.38,7.01,.23,.03,.4,.23,.4,.46v1.53c0,.26,.21,.47,.47,.47h.67c.26,0,.47-.21,.47-.47v-1.53c0-.23,.17-.43,.4-.46,3.23-.46,6.17-2.8,6.38-7.01,.01-.27-.2-.5-.47-.5Z"/><path class="a`" d="M220.02,1247.06c-2.26,0-4.09-1.83-4.09-4.09v-6.28c0-2.26,1.83-4.09,4.09-4.09s4.09,1.83,4.09,4.09v6.28c0,2.26-1.83,4.09-4.09,4.09Z"/></g></g><g><circle class="bn" cx="325.14" cy="1243.05" r="18.93"/><path class="am" d="M318.16,1247.7c-2.58,.41-4.24-.16-5.04-2.03-.51-1.21-.48-2.46,.19-3.6,.94-1.62,3.18-2.99,6.07-3.45,1.83-.3,3.74-.37,5.57-.35,.86,0,1.72,.04,2.57,.08h.23c3.4,.07,9.04,1.14,9.66,4.59,.32,1.67-.07,2.97-.98,3.79-.66,.6-1.87,1.19-4.1,.94-2.61-.26-3.47-.89-4.02-3.18-.3-1.24-.86-1.44-2.92-1.49-.2,0-.41-.01-.62-.02-.78-.03-1.68-.03-2.2,.27-.67,.4-.74,.93-.83,1.6-.13,.93-.3,2.16-2.37,2.62-.43,.1-.83,.18-1.21,.24Z"/></g></g><g><polygon class="ai" points="563.88 1316.5 566.41 1316.5 575.02 1246.38 572.49 1246.17 563.88 1316.5"/><polygon class="ai" points="633.68 1246.38 642.29 1316.5 644.82 1316.5 636.21 1246.17 633.68 1246.38"/><polygon class="ai" points="614.27 1246.29 615.28 1316.5 617.81 1316.5 616.81 1246.27 614.27 1246.29"/><path class="ai" d="M668.27,1159.25h-45.52c-6.17,0-11.98,2.91-15.65,7.86-2.96,4.01-5.99,9.3-7.19,15.32-2.67,13.38-.89,59.35-.89,59.35h-46.64c-2.03,0-3.68,1.65-3.68,3.68s1.65,3.68,3.68,3.68h96.67s11.71,.91,16.25-13.43c3.86-12.18-1.23-19.36-2.03-32.54-1.13-18.64,4.25-31.38,8.29-38.16,1.52-2.55-.33-5.77-3.29-5.77Z"/><path class="cc" d="M586.48,1196.96s-1.15,23.76-4.87,30.06l24.33,6.87s15.81,4.71,18.03,1.72c6.58-8.87-1.15-38.65-1.15-38.65h-36.35Z"/><path class="bm" d="M582.71,1091.02c-8.93,5.1-3.59,17.13-6.28,25.94-3.3,10.82-12.72,16.8-3.1,28.47,5.81,7.04,25.75-1.72,25.75-1.72,0,0,1.74-33.44,2.43-42,.69-8.56-12.28-14.41-18.8-10.69Z"/><path class="aj" d="M604.89,1112.22c.44-4.2-17.27-3.47-15.83,3.35,2.33,11.08,.84,20.66,.84,20.66l17.91-1.3s-4.15-11.08-2.92-22.72Z"/><path class="bh" d="M589.06,1115.58c1.16,5.49,1.37,10.6,1.3,14.37,1.14,.07,2.42-.14,3.85-.69,4.9-1.87,8.99-10.25,9.96-18.46-3.26-2.46-16.35-1.12-15.11,4.78Z"/><path class="cc" d="M592.82,1135.26c-13.32-.49-21.22,8.35-30.88,25.63-6.24,11.15-15.33,29.34-4.34,33.08,7.94,2.7,29.9-39.84,29.9-39.84,0,0,20.81-18.29,5.32-18.86Z"/><path class="cc" d="M627.29,1150.5c-.78-6.37-48.04-18.83-49.64-5.69-1.74,14.31,3.39,20.66,7.68,30.11,3.8,8.37,1.15,22.04,1.15,22.04,0,0,11.45,.86,22.33,.86,14.18,0,14.03-.86,14.03-.86,0,0,5.73-36.15,4.46-46.46Z"/><path class="aj" d="M550.8,1146.55c-2.61-4.66-1.28-9.41-2.48-13.61-1.74-6.08-10.55-12.08-13.49-12.36-2.94-.28,2.25,4.01,2.25,4.01,0,0-5.22-1.56-7.76-1.83-2.54-.27,2.16,5.4,2.16,5.4,0,0-3.12-1.36-3.09-.79,.12,2.12,6.98,5.57,10.44,11.22,2.43,3.96,.32,12.9,3.41,29.35,3.09,16.45,12.46,26.88,15.89,26.15,3.54-.76,8.45-2.88,6.71-12.8-1.74-9.92-11.42-30.08-14.03-34.73Z"/><path class="aj" d="M545.75,1135.04c-3.04,3.19,3.37,12.63,3.55,9.02,.33-6.46,3.7-14.43,2.34-18.88-.8-2.63-3.25,7.07-5.9,9.86Z"/><path class="aj" d="M598.82,1094.48c-6.45-3.73-16.71,1.96-17.4,14.13-.45,7.87,5.03,19.21,16.43,14.85,8.97-3.43,11.58-22.84,.97-28.98Z"/><path class="bj" d="M594.42,1105.15c-.88,0-1.6,.72-1.6,1.6s.72,1.6,1.6,1.6,1.6-.72,1.6-1.6-.72-1.6-1.6-1.6Z"/><path class="bj" d="M584.08,1104.96c-.88,0-1.6,.72-1.6,1.6s.72,1.6,1.6,1.6,1.6-.72,1.6-1.6-.72-1.6-1.6-1.6Z"/><path class="bi" d="M589.35,1113.94s-1.48-.13-3.1-.25c-.04,0-.08,0-.11-.01,.05-.19,.19-.53,.32-.86,.12-.3,.28-.68,.44-1.12,.15-.39,.32-.79,.51-1.25,.5-1.17,1.13-2.63,1.78-4.94,.07-.25-.07-.51-.33-.59-.25-.07-.51,.07-.58,.33-.64,2.25-1.25,3.68-1.74,4.83-.2,.47-.38,.88-.53,1.29-.16,.43-.31,.78-.43,1.09-.37,.9-.55,1.35-.3,1.76,.2,.32,.56,.39,.89,.41,1.61,.12,3.07,.25,3.08,.25,.01,0,.03,0,.04,0,.24,0,.45-.19,.47-.43,.02-.26-.17-.49-.43-.51Zm-3.22-.14h0Z"/><path class="bi" d="M597.75,1113.85c-.23-.13-.52-.05-.65,.18-1.64,2.87-4.13,4.24-7.41,4.07-.26-.01-.48,.19-.5,.45-.01,.26,.19,.48,.45,.5,.21,.01,.42,.02,.62,.02,3.36,0,5.94-1.53,7.66-4.56,.13-.23,.05-.52-.18-.65Z"/><path class="bi" d="M586.07,1102.82c-1.25-.72-3.38-.29-4.19,.09-.24,.11-.34,.39-.23,.63,.08,.17,.25,.27,.43,.27,.07,0,.14-.01,.2-.04,.69-.32,2.48-.62,3.32-.13,.23,.13,.52,.05,.65-.17,.13-.23,.05-.52-.17-.65Z"/><path class="bi" d="M597.42,1103.06c-1.16-.86-3.33-.67-4.18-.39-.25,.08-.38,.35-.3,.6,.08,.25,.35,.38,.6,.3,.72-.24,2.53-.33,3.31,.25,.08,.06,.18,.09,.28,.09,.14,0,.29-.07,.38-.19,.16-.21,.11-.51-.1-.66Z"/><path class="bm" d="M631.26,1116.43c-5.27-5.4-4.59-12.98-7.54-18.78-3.35-6.58-8.24-10.86-13.68-12.78-7.8-2.76-19.58-2.56-20.12,6.36-.68,11.22,14.51,9.47,15,18.73,.55,10.42-5.26,11.56-.64,22.57,2.84,6.77,13.71,2.82,23.05,11.5,9.34,8.68,7.65,14.63,7.65,14.63,0,0,20.94-7.32,15.55-26.25-3.59-12.61-11.94-8.49-19.27-15.99Z"/><path class="aj" d="M606.64,1104.59c-2.38,.32-2.98,3.76-2.98,3.76l.27,4.79s3.54,2.52,5.34-3.3c1.08-3.49-.68-5.51-2.62-5.25Z"/><path class="bi" d="M607.23,1105.99c-.69,.11-1.26,.53-1.67,1.22-.66,1.11-.76,2.8-.26,4.19,.07,.19,.25,.31,.45,.31,.05,0,.11,0,.16-.03,.25-.09,.37-.36,.28-.61-.41-1.12-.33-2.51,.18-3.38,.26-.44,.6-.7,1-.76,.26-.04,.43-.28,.39-.54-.04-.26-.28-.43-.54-.39Z"/><g><path class="bh" d="M535.67,1223.66c-9.4,7.6,14.53,85.1,14.53,85.1l8.23,.56s-1.07-57.62-6.2-73.07c-5.14-15.45-9.41-18.37-16.56-12.59Z"/><path class="af" d="M550.44,1307.57s-4.74,1.22-11.81,3.48c-6.56,2.1-12.09,2.4-10.88,5.1,1.01,2.24,22.85,1.31,30.14,.93,1.33-.07,2.37-1.22,2.31-2.55-.08-1.7-.3-4.03-.88-6.02-.75-3.66-8.87-.93-8.87-.93Z"/><path class="ai" d="M605.75,1220.67c-9.47,.75-8.7,.1-12.82-.37-20.84-2.39-47.97-7.72-48.65,3.98-.68,11.62,26.12,21.58,58.88,21.57,30.01,0,22.56-26.24,22.56-26.24-4.22-.8-11.18,.37-19.97,1.07Z"/><g><path class="aj" d="M542.62,1222.54c-7.9,7.37,33.38,87.48,33.38,87.48l8.64,.98s-10.23-59.3-18.9-74.75c-8.67-15.45-16.33-20.05-23.12-13.71Z"/><path class="ak" d="M584.4,1308.51c-1.27-3.66-9.01-.93-9.01-.93,0,0-4.57,1.22-11.32,3.48-6.27,2.1-11.75,2.4-10.16,5.1,1.32,2.24,23.04,1.31,30.27,.93,1.32-.07,2.2-1.22,1.95-2.55-.32-1.7-.87-4.03-1.73-6.02Z"/></g><path class="cc" d="M604.8,1232.47s12.95-13.96,1.08-18.19c-10.45-3.73-57.47-.42-67.21,3.31-7.47,2.86-6.12,14.28-6.12,14.28,0,0,9.88-.37,15.36,1.3,8.53,2.61,23.25,12.18,23.25,12.18,0,0,41.51,2.15,44.51-2,5.75-7.94-10.88-10.88-10.88-10.88Z"/></g><path class="ai" d="M595.11,1208.76c-11.49,13.13-8.68,38.93-8.68,38.93h63.21l3.48-56.65s-36.12-7.28-58,17.72Z"/><path class="cc" d="M621.64,1138.75c-12.61-7.68-36.55-4.57-38.93-.91l2.74,4.39c-11.66,.57,28.04,4.13,34.51,15.22,4.84,8.3,9.18,22.23,10.33,33.35,.81,7.76,5.67,10.59,11.03,8.91,2.48-.78,4.78,1.47,5.41-2.89,2.55-17.6-10.35-49.08-25.1-58.06Z"/><g><path class="aj" d="M633.06,1188.13c-12.31,2.96-18.14,5.97-30.2,12.04-12.06,6.07-24.08,13.8-24.43,20.59-.37,7.34-.45,11.01,.84,10.94,1.71-.1,3.98-.25,6.49-3.05,2.64-2.94,5.5-11.4,5.5-11.4,0,0,42.17-4.98,53.5-16.31,5.11-5.1,.6-15.78-11.71-12.82Z"/><path class="aj" d="M583.5,1212.7c-3.98,3.19-6.4,8.06-8.06,11.76-1.66,3.7-3.01,6.11-1.56,6.74,1.49,.65,7.54-11.53,7.54-11.53,0,0,7.32-11.15,2.09-6.97Z"/></g></g></g><g><path class="cb" d="M131.77,1083.2c0,5.65,4.59,10.23,10.26,10.23,5.66,0,10.26-4.58,10.25-10.23,0-5.65-4.59-10.23-10.25-10.23s-10.25,4.58-10.26,10.23Z"/><path class="cb" d="M104.43,1083.2c0,5.65,4.59,10.23,10.25,10.23s10.25-4.58,10.25-10.23c0-5.65-4.59-10.23-10.26-10.23s-10.25,4.58-10.25,10.23Z"/><path class="a`" d="M146.97,1084.89h-9.5c-.93,0-1.69-.76-1.69-1.69s.76-1.69,1.69-1.69h9.5c.93,0,1.69,.76,1.69,1.69s-.76,1.69-1.69,1.69Z"/><g><path class="a`" d="M111.33,1088.24c-.43,0-.87-.17-1.2-.5-.66-.66-.66-1.73,0-2.39l6.71-6.7c.66-.66,1.73-.66,2.39,0,.66,.66,.66,1.73,0,2.39l-6.71,6.7c-.33,.33-.76,.49-1.2,.49Z"/><path class="a`" d="M118.04,1088.24c-.43,0-.86-.16-1.2-.49l-6.71-6.7c-.66-.66-.66-1.73,0-2.39,.66-.66,1.73-.66,2.39,0l6.71,6.7c.66,.66,.66,1.73,0,2.39-.33,.33-.76,.5-1.2,.5Z"/></g></g></g><path class="aq" d="M312.97,1085.36c.43-31.87,.15-90.39,1.31-108.93,.56-8.99,4.54-12.53,13.07-13.54,7.18-.85,58.89-1.31,79.85-.11,10.81,.62,10.92,10.78,11.53,14.61,2.22,13.99,.83,52.82-.03,70.04-.14,2.84,.27,17.23-14.61,18.17-12.92,.81-47.35,.28-56.62,.39-6.5,.08-34.66,31.86-34.49,19.37h0Z"/><path class="af" d="M338.51,1009.53c-5.24,3.04-6.53,11.08-1.39,14.86,2.25,1.65,5.41,2.25,8.06,1.26,3.32-1.25,5.31-4.78,6.36-7.99s1.14-7.19-.82-10.2c-1.68-2.57-4.56-4.16-7.58-4.53-6.73-.82-12.34,5.01-12.82,11.47-.26,3.49,.91,7.07,2.97,9.88s5.1,5.24,8.72,5.33c6.7,.16,11.71-6.83,12.07-12.98,.19-3.27-.97-6.5-3.73-8.4-1.39-.96-3.04-1.5-4.66-1.9-1.75-.44-3.58-.84-5.39-.83s-3.42,.49-4.72,1.66c-1.15,1.04-1.85,2.5-2.29,3.96-1.04,3.42-1.42,7.62,.68,10.72,1.75,2.58,4.83,4.31,7.98,4.17s5.97-2.02,7.5-4.68c1.62-2.8,1.47-6.25-.18-9.01-1.55-2.58-4.43-4.55-7.53-4.29-1.46,.13-2.89,.74-3.73,1.99-.93,1.39-.96,3.31-.82,4.91,.28,3.39,2.12,6.87,5.75,7.49,3.53,.6,5.99-2.4,6.71-5.56s-.39-6.71-3.65-7.9c-1.37-.5-3-.44-4.24,.38-1.48,.98-2.26,2.73-2.73,4.38s-.55,3.44,.35,4.92c.75,1.24,2.09,2.1,3.5,2.38,3.09,.6,5.88-1.59,6.45-4.62s-1.32-6.55-4.7-6.54c-2.8,0-5.25,2.32-4.8,5.2s3.51,5.06,6.34,3.82c3.01-1.31,3.93-5.06,1.84-7.57s-5.69-3.03-8.58-1.9-4.91,4.1-4.81,7.34,2.21,6.11,5.39,7.02c7.2,2.07,11.77-6.2,10.92-12.39-.44-3.19-2.27-6.04-5.28-7.34-2.59-1.12-5.81-1.09-8.13,.65-5.59,4.2-2.41,13.61,2.74,16.7,2.61,1.57,6.23,1.54,8.4-.79,.68-.73-.42-1.84-1.1-1.1-1.89,2.03-4.98,1.7-7.07,.17s-3.64-4.23-4.14-6.85c-.46-2.42-.02-5.26,2.04-6.84,1.82-1.4,4.39-1.43,6.46-.6,5.23,2.1,5.61,8.94,3.14,13.28-1.37,2.42-3.62,4.16-6.51,3.82-2.59-.3-4.68-2.14-5.19-4.71s.63-5.3,2.97-6.58c2.22-1.21,5.24-1.09,7.14,.67,.96,.89,1.51,2.14,1.09,3.43-.36,1.11-1.32,2.07-2.47,2.33-2.36,.55-4.5-2.38-3.44-4.5s4.07-2.3,5.44-.54c1.6,2.07,.86,5.48-1.51,6.64s-5.21-.55-5.27-3.13,1.45-6.3,4.46-5.87c6.13,.88,3.73,12.31-2.07,10.53-2.91-.89-3.93-4.06-3.95-6.82,0-1.36,.09-2.93,1.31-3.76,.96-.65,2.27-.73,3.37-.49,2.44,.52,4.42,2.56,5.22,4.87s.42,5.02-1.21,7.01-4.05,3.13-6.56,2.85-4.87-1.95-6.03-4.2c-1.35-2.63-.84-6.08,.01-8.8,.39-1.24,1-2.49,2.04-3.31,1.13-.89,2.59-1.09,3.98-1.04s2.89,.38,4.3,.73,2.67,.73,3.86,1.42c2.33,1.36,3.47,3.78,3.54,6.42,.13,5.09-3.26,10.7-8.32,12.13-5.78,1.63-10.67-4.2-11.97-9.25s.89-11,5.88-13.3c4.65-2.15,10.81,.21,12.25,5.27,.82,2.88,.15,6.05-1.12,8.7-1.14,2.36-2.82,4.71-5.53,5.27-2.22,.45-4.7-.3-6.34-1.84s-2.32-3.95-1.9-6.21,1.78-4.34,3.81-5.52c.87-.5,.08-1.85-.79-1.34h0Z"/><path class="ax" d="M378.85,1018.94c-2.96-.77-6.01,.38-8.09,2.54-2.2,2.28-3.12,5.44-2.36,8.53,1.56,6.38,9.33,10.68,15.48,8,3.24-1.41,4.86-4.7,5.55-7.99,.73-3.51,.87-7.35-.2-10.8-.99-3.19-3.13-5.95-6.22-7.33-3.18-1.42-6.46-.93-9.2,1.17-5.27,4.03-9.04,11.59-6.6,18.18,1.09,2.94,3.29,5.53,6.11,6.93,3.01,1.5,6.37,1.42,9.35-.13,6.21-3.23,9.38-11.27,6.7-17.78-1.26-3.05-3.62-5.65-6.69-6.94-1.73-.73-3.66-.98-5.46-.33-1.57,.57-2.92,1.61-4.01,2.86-4.58,5.22-4.98,13.74,.7,18.36,2.68,2.18,6.43,3.13,9.61,1.43s5.15-5.11,5.85-8.42-.04-6.95-2.7-9.24c-2.52-2.18-5.97-2.64-8.82-.8s-5.34,5.31-5.34,8.73,2.59,6.13,6.07,5.76c6.92-.75,9.1-11.49,3.75-15.45-2.45-1.81-6.08-1.94-8.29,.33s-2.66,5.98-1.55,8.8,4.12,4.52,6.96,2.73,4.55-5.86,2.53-8.73c-1.85-2.61-5.44-2.35-6.9,.47s-.81,6.6,1.17,9.01,6.04,3.33,8.5,.96c2.11-2.04,2.15-5.53,1.12-8.09-1.15-2.86-4.06-5.58-7.33-4.15-1.57,.69-2.14,2.17-2.51,3.74-.42,1.77-.68,3.76,.25,5.42,1.31,2.34,4.62,3.26,6.97,2s3.03-4.68,1.76-7.01c-.29-.53-.7-1.01-1.17-1.39-.74-.58-1.43-.17-2.19,.21-1.45,.71-2.78,1.83-3.59,3.24-1.45,2.52-.99,6.15,1.62,7.76,.6,.37,1.39,.68,2.09,.46,.77-.25,1.22-1.09,1.62-1.73,.93-1.48,1.64-3.16,1.11-4.92-.29-.96-1.79-.55-1.5,.41,.25,.83,.11,1.63-.23,2.41-.18,.41-.41,.8-.64,1.18-.17,.27-.39,.78-.65,.97-.56,.4-1.39-.34-1.76-.79-.42-.49-.69-1.1-.83-1.73-.68-2.98,1.87-5.36,4.44-6.29l-.6-.08c1.6,1.13,1.86,3.74,.62,5.23-1.31,1.57-3.89,1.3-5.23-.08-.94-.97-1.02-2.38-.83-3.65,.18-1.19,.41-2.95,1.44-3.72,2.31-1.7,4.79,.88,5.63,2.87s.98,4.48-.34,6.2c-1.62,2.12-4.78,1.54-6.4-.25s-2.22-4.65-1.41-6.91c.34-.93,1.02-1.9,2.06-2.07,1.17-.2,2.29,.67,2.75,1.71,1.05,2.37-.93,5.76-3.33,6.43s-3.85-1.9-4.13-3.93c-.31-2.27,.45-5.24,2.61-6.39,2.04-1.09,4.75-.26,6.17,1.45,3.08,3.7,1,11.95-4.52,11.82-2.86-.07-4.17-2.96-3.59-5.49s2.6-5.14,4.88-6.41,4.82-.69,6.65,1c1.99,1.82,2.63,4.54,2.19,7.15s-1.79,5.16-3.78,6.91c-2.15,1.9-4.99,2.13-7.53,.85-4.77-2.4-6.43-8.15-4.75-13,.84-2.43,2.48-4.84,4.74-6.16,2.57-1.5,5.47-.64,7.7,1.08,4.15,3.2,5.44,8.82,3.64,13.64s-6.73,9.1-12.02,7.8c-4.79-1.18-7.98-5.96-7.9-10.77,.08-5.09,3.3-10.42,7.63-13.08,4.64-2.85,10.02,.6,11.79,5.17,1,2.58,1.13,5.41,.87,8.14-.23,2.5-.76,5.18-2.23,7.28-3.18,4.52-9.87,3.42-13.42,0-1.7-1.64-2.92-3.86-2.99-6.26s1.01-4.4,2.69-5.9,3.89-2.21,6.06-1.65c.97,.25,1.38-1.25,.41-1.5h0Z"/><path class="cc" d="M374.9,998.46c9.83-1.56,19.49,3.19,26.78,9.45,7.88,6.76,13.66,15.53,20.31,23.42,12.95,15.37,30.19,25.86,47.93,34.84,9.24,4.68,18.57,9.35,28.18,13.2,4.96,1.98,10.05,3.69,15.28,4.83,5.06,1.09,10.48,1.85,15.66,1.38,2.3-.21,4.36-1.02,5.95-2.73,1.42-1.53,2.39-3.49,2.83-5.52,.8-3.65-.03-7.48-1.85-10.7-1.9-3.36-4.9-6.12-8.48-7.59-4.02-1.64-8.61-1.6-12.75-.44s-8.24,3.6-11.39,6.74c-3.27,3.26-6.11,7.75-5.63,12.55,.26,2.63,1.42,5.03,2.6,7.36,1.27,2.5,2.56,4.99,3.84,7.49,1.96,3.83,4.07,8.66,9.02,8.92,2.56,.14,5.06-.92,7.38-1.88,2.51-1.04,4.97-2.2,7.36-3.5,4.23-2.29,8.36-4.95,11.83-8.31,3.2-3.09,5.86-6.9,6.99-11.25,1.05-4.02,.87-8.44-.94-12.22-1.98-4.13-5.89-6.63-10.13-8.03-4.67-1.55-10.09-2.52-14.95-1.34-3.95,.96-7.66,3.74-8.9,7.72-1.39,4.44,1.1,9.23,3.88,12.59,5.56,6.73,14.81,9.63,23.16,7.01,4.14-1.3,7.94-3.79,10.66-7.19,2.86-3.58,4.81-8.46,3.01-12.97-1.53-3.83-5.22-6.58-9.19-7.48-4.99-1.13-10.25,.24-14.74,2.47-3.66,1.82-7.38,4.99-7.19,9.47,.18,4.21,3.64,7.61,7.28,9.26,4.8,2.16,10.25,1.41,15.34,1.26,1.3-.04,2.61-.04,3.91,.04s2.73,.22,3.77,1.1c1.56,1.32,1.85,3.71,1.52,5.61-.75,4.31-4.14,7.7-7.96,9.54-4.77,2.31-10.38,2.16-15.49,1.26-2.15-.38-4.74-.7-6.56-2.01-1.36-.98-2.39-3.55-.55-4.64,.86-.51,.08-1.85-.79-1.34-1.53,.9-2,2.73-1.59,4.39,.46,1.89,2.06,3.1,3.78,3.79,2.18,.88,4.62,1.25,6.93,1.57,2.52,.36,5.08,.52,7.62,.28,4.32-.39,8.48-1.91,11.72-4.87,2.84-2.6,4.96-6.49,4.49-10.43-.21-1.74-.93-3.45-2.36-4.53-1.86-1.4-4.52-1.35-6.74-1.35-5.07,0-10.56,1.08-15.45-.7-3.59-1.3-7.44-4.58-7.32-8.73,.13-4.58,5.01-7.21,8.74-8.66,4.38-1.7,9.57-2.51,13.94-.34,3.87,1.92,6.64,5.8,5.91,10.25-.72,4.39-3.91,8.24-7.5,10.7s-7.75,3.75-12.02,3.67c-8.24-.15-16.91-6.19-18.82-14.45-1.02-4.39,1.78-8.28,5.68-10.07,4.55-2.08,10.04-1.17,14.69,.09,4.26,1.16,8.42,3.22,10.59,7.25,1.93,3.59,2.07,7.97,1,11.84-2.44,8.86-10.95,14.61-18.62,18.68-2.28,1.21-4.62,2.31-7.02,3.28s-5.13,2.13-7.69,1.34c-2.02-.63-3.35-2.42-4.37-4.17-1.24-2.13-2.29-4.37-3.41-6.56-1.21-2.37-2.53-4.72-3.6-7.16s-1.56-4.85-.97-7.4c1.02-4.38,4.4-8.12,7.96-10.69,6.61-4.78,16.35-6.7,23.15-1.22,2.91,2.35,5.03,5.71,5.74,9.39,.71,3.67-.25,7.99-3.25,10.44-2.05,1.68-4.77,1.64-7.28,1.61s-5.06-.23-7.56-.59c-5-.73-9.9-2.07-14.66-3.73-9.54-3.33-18.64-7.9-27.7-12.36-16.88-8.3-33.78-17.5-47.15-30.97-13.2-13.3-22.33-32.67-41.47-38.51-4.15-1.27-8.5-1.65-12.79-.97-.99,.16-.57,1.66,.41,1.5h0Z"/><path class="ax" d="M381.34,1029.45c16.37,1.2,31.54,8.3,45.57,16.37,14.31,8.22,28.01,17.54,43.16,24.2,7.26,3.19,14.78,5.82,22.56,7.4,3.81,.78,7.72,1.39,11.62,1.52,3.54,.12,7.17-.26,10.41-1.76,3.35-1.55,5.77-4.38,7.63-7.49,.94-1.57,1.82-3.21,2.56-4.89,.76-1.74,1.31-3.59,1.01-5.5-.51-3.25-3.46-5.73-6.58-6.38-3.69-.76-7.59,.48-10.75,2.39-5.38,3.26-9.79,9.48-8.76,16.01,1.09,6.87,7.97,10.58,14.01,12.41,3.97,1.21,8.12,1.9,12.27,2.06,3.72,.15,7.6,0,11.21-.98,3.08-.83,6.07-2.43,7.8-5.21,1.94-3.12,1.86-6.94,1.37-10.44-.44-3.19-.88-7.2-3.44-9.47-2.5-2.21-6.35-2.37-9.44-1.57-2.88,.75-5.66,2.46-7.28,5s-1.63,5.94,0,8.58c1.83,2.94,4.94,4.68,8.09,5.87,3.48,1.31,7.44,2.09,10.27,4.66,1.24,1.13,2.28,2.54,2.66,4.2,.4,1.71-.16,3.34-1.13,4.75-2.02,2.89-5.29,5-8.44,6.45s-6.84,2.4-10.4,2.84-7.43,.59-10.93-.59c-3.1-1.05-5.75-3.39-6.64-6.61-.8-2.9,.36-5.76,2.95-7.28,6.35-3.72,13.08,1.09,18.08,4.82,1.48,1.1,3.03,2.51,4.91,2.83s3.24-.68,4.36-2.01c2.09-2.48,4.15-6.47,1.9-9.5-1.52-2.05-4.77-3.04-6.72-1-.92,.97,.54,2.44,1.47,1.47,.78-.82,1.96-.57,2.82,.03,1.22,.85,1.5,2.25,1.18,3.65-.38,1.67-1.45,3.26-2.64,4.47-.58,.59-1.23,1.01-2.1,.84-.92-.18-1.74-.81-2.48-1.34-5.31-3.86-10.89-8.58-17.92-7.43-2.65,.43-5.19,1.76-6.75,3.98-1.75,2.49-1.74,5.7-.57,8.42,2.83,6.58,10.38,8.03,16.82,7.56,6.73-.49,13.61-2.36,19-6.58,2.61-2.04,5.27-4.79,5.43-8.29,.16-3.23-1.96-6.12-4.43-7.98-2.89-2.18-6.53-3.01-9.87-4.24-2.97-1.09-6.14-2.78-7.56-5.78-2.8-5.93,4.57-10.29,9.63-10.12,1.58,.05,3.27,.43,4.44,1.56s1.64,2.75,1.99,4.28c.72,3.23,1.41,6.86,.68,10.14-1.58,7.1-10.06,7.95-16.06,7.99-4.03,.03-8.05-.46-11.95-1.46-3.23-.83-6.43-1.95-9.22-3.82-2.52-1.69-4.61-4.1-5.26-7.12-.63-2.93,.25-5.95,1.79-8.45,1.59-2.59,3.91-4.73,6.56-6.19,3.02-1.66,7.09-2.86,10.35-1.16,1.28,.67,2.43,1.72,2.97,3.09,.68,1.73,.16,3.6-.56,5.23-1.37,3.1-3.12,6.36-5.52,8.79-5.13,5.18-13.11,4.52-19.73,3.54-7.5-1.11-14.81-3.25-21.86-6.01-14.57-5.72-27.77-14.15-41.13-22.17s-27.11-15.6-42.34-19.01c-3.65-.82-7.36-1.38-11.09-1.65-1.33-.1-1.33,1.98,0,2.08h0Z"/><path class="af" d="M343.64,1022.75c-.3,9.03,4.43,17.42,10.93,23.41,7.31,6.74,16.81,10.46,26.12,13.51,20.72,6.79,42.12,13.32,64.01,14.62,10.61,.63,21.47-.11,31.58-3.58,10.15-3.49,19.13-9.75,29.44-12.84,9.28-2.78,20.08-2.72,27.17,4.77,2.89,3.05,4.72,7.07,4.47,11.32-.27,4.65-2.96,8.79-6.17,12-3.22,3.22-7.57,6.64-12.25,7.12-4.06,.42-8.11-1.38-10.94-4.24-2.92-2.94-4.46-6.98-3.9-11.12,.57-4.22,3.09-8.09,6.49-10.59s7.88-3.7,12.04-2.59c4.6,1.23,7.1,5.29,6.39,9.96-.34,2.26-1.23,4.42-2.38,6.39-1.15,1.97-2.58,4.08-4.47,5.42-4.01,2.85-8.97-.96-8.74-5.48,.26-5.06,5.2-8.15,9.73-8.89s9.81-.21,13.78,1.99c.94,.52,1.8,1.15,2.55,1.92,.83,.87,1.36,1.9,2.03,2.88,1.13,1.66,2.76,2.65,4.81,2.42,4.15-.46,6.74-4.45,7.3-8.29,1.38-9.51-6.82-16.29-14.35-20.27-7.58-4.01-17.39-6.64-25.45-2.44-4,2.08-6.84,5.73-8.9,9.66-2.23,4.27-4.18,9.11-4.8,13.91-.59,4.51,.49,8.83,3.36,12.38,2.54,3.13,6.1,5.34,9.77,6.9,8.52,3.62,19.36,5.01,27.82,.53,3.94-2.09,7.15-5.3,9.83-8.82,2.65-3.46,5.22-7.34,6.82-11.41,1.35-3.44,1.9-7.64-.95-10.48l-.94,1.22c2.87,1.47,4.57,4.32,5.15,7.43,.63,3.43-.3,6.89-1.96,9.91-1.76,3.2-4.24,5.96-6.88,8.45s-5.61,4.78-8.79,6.64c-6.05,3.54-13.07,5.69-20.13,5.16-6.44-.48-12.85-3.18-17.43-7.78-10.43-10.46-7.4-28.3,1.23-38.91,4.14-5.09,9.74-8.94,16.15-10.49s13.28-.92,19.19,1.88c6.78,3.22,11.01,9.12,14.22,15.72,1.77,3.65,3.59,7.73,2.85,11.88-.63,3.54-2.83,6.54-5.22,9.12-1.17,1.26-2.42,2.45-3.67,3.62-.73,.69,.37,1.78,1.1,1.1,2.78-2.6,5.59-5.31,7.49-8.64,1.95-3.42,2.48-7.21,1.51-11.04-1.03-4.07-3.13-8.08-5.31-11.65-2.03-3.34-4.51-6.38-7.65-8.73-5.59-4.19-12.8-6.05-19.73-5.56-7.09,.49-13.68,3.47-18.87,8.31-5.17,4.82-8.82,11.27-10.45,18.14-1.81,7.62-1.32,16.27,3.2,22.89,3.89,5.7,10.18,9.5,16.85,11.01,7.29,1.65,14.84,.4,21.59-2.68,7.01-3.2,13.46-8.38,18.08-14.55,4.16-5.56,6.39-13.47,1.87-19.53-.96-1.28-2.17-2.32-3.59-3.06-.77-.39-1.59,.58-.94,1.22,3.25,3.24,1,8.56-.88,11.92-2.28,4.07-4.87,8.08-8.13,11.44s-7.59,6.07-12.44,7c-5.17,1-10.58,.29-15.61-1.08-8.14-2.22-17.2-7.6-17.11-17.11,.05-5.11,2.2-10.36,4.45-14.88,2.12-4.26,5.09-8.17,9.54-10.15,8.68-3.87,19.13,.19,26.57,4.97,3.94,2.53,7.83,5.9,9.39,10.46,1.37,4,1.06,9.6-2.81,12.17-2.09,1.39-4.43,1.32-5.89-.85-1.22-1.81-2.26-3.42-4.11-4.66-3.62-2.43-8.41-3.09-12.68-3-4.68,.09-9.42,1.6-12.24,5.54-2.39,3.34-2.57,7.84,.35,10.91,7.43,7.81,15.57-5.46,16.48-12.02,.58-4.16-.99-8.32-4.76-10.44-3.59-2.01-8.13-2.01-11.92-.57-7.46,2.84-13.01,11.13-11.08,19.19,1.81,7.57,10.04,13.35,17.79,11.6,4.45-1,8.52-4.15,11.69-7.32s5.77-7.1,6.46-11.57c1.3-8.45-4.79-15.98-12.27-19.11-9.6-4.02-20.5-.88-29.53,3.17-4.93,2.21-9.68,4.81-14.6,7.04-4.99,2.26-10.15,3.97-15.54,4.99-10.84,2.05-22.07,1.57-32.95,.06-11.15-1.54-22.11-4.26-32.91-7.38-5.43-1.57-10.84-3.24-16.23-4.94-4.95-1.56-9.9-3.18-14.65-5.27-8.87-3.91-17.14-9.68-21.78-18.43-2.11-3.98-3.26-8.38-3.11-12.89,.03-1-1.52-1-1.56,0h0Z"/></g><path class="cc" d="M371.87,991.82c-3.47-.17-5.98,2.98-5.91,6.28s2.32,6.32,5.38,7.55,6.41,.41,8.58-1.9,2.42-5.69,1.24-8.55c-2.18-5.32-8.76-8.67-14.21-6.09-2.88,1.37-4.18,4.45-3.99,7.52s1.54,6.91,4.13,8.95,6.19,1.7,8.75-.28c2.76-2.14,3.81-5.78,3.79-9.15s-1.28-7.1-4.75-8.33-6.49,1.73-8.03,4.55c-.79,1.45-1.23,3.16-.79,4.79,.38,1.39,1.34,2.68,2.71,3.2,3.25,1.24,5.97-2.18,5.57-5.19s-3.4-6.38-6.73-4.97c-2.8,1.18-4.03,4.34-3.62,7.2,.37,2.62,2.01,5.14,4.46,6.25,2.67,1.21,5.8,.53,8.04-1.26s3.55-4.83,2.82-7.78-3.08-5.36-5.94-6.21c-1.66-.49-3.41-.32-5.05,.16-1.75,.52-3.56,1.28-5.13,2.2-2.97,1.75-4.14,4.92-3.44,8.25s3.42,6.01,6.21,7.96c1.38,.96,2.93,2.14,4.65,2.34,1.81,.21,3.37-.91,4.74-1.95,5.09-3.85,9.28-10.18,6.55-16.69-1.23-2.93-3.73-4.91-6.88-5.36-3.41-.49-7.26,.29-10.36,1.75s-5.48,4.07-6.36,7.43-.28,6.67,1.52,9.46c3.6,5.6,11.03,7.72,17.03,4.81,5.52-2.69,7.89-9.69,5.45-15.27s-9.18-7.52-14.43-5.11c-2.68,1.23-4.64,3.72-5.17,6.63s.19,5.93,2.52,7.72c2,1.54,4.85,1.73,7.12,.73s4.36-3.84,2.99-6.29c-.61-1.1-1.8-1.43-2.97-1.52-.7-.05-2.58,.26-2.84-.62-.29-.96-1.79-.55-1.5,.41,.62,2.08,2.96,1.57,4.62,1.79,2.72,.37,1.19,3.56-.33,4.49-1.61,.99-3.83,1.09-5.5,.19-2.1-1.13-2.9-3.63-2.69-5.89,.46-5.03,5.45-7.79,10.14-6.94,2.26,.41,4.41,1.58,5.75,3.48s1.89,4.39,1.64,6.76c-.54,5.28-4.9,9.01-10.14,9.2s-10.51-3.38-11.78-8.68c-.64-2.66-.13-5.57,1.37-7.85,1.6-2.43,4.31-3.8,7.05-4.53s6.1-1.24,8.79,0c2.21,1.02,3.57,3.18,4.07,5.51,1.19,5.49-2.69,10.34-6.87,13.38-1.24,.9-2.55,1.81-4.13,1.23-1.37-.5-2.67-1.51-3.84-2.36-2.28-1.67-4.39-3.87-4.94-6.74-.24-1.26-.18-2.63,.33-3.82,.57-1.31,1.68-2.17,2.91-2.83,2.51-1.33,5.73-2.8,8.6-1.9,2.37,.75,4.29,2.88,4.79,5.31s-.67,4.73-2.59,6.12-4.43,1.84-6.51,.7c-1.89-1.04-3.13-3.16-3.28-5.29s1.09-5.2,3.66-5.37c1.44-.1,2.56,1.2,3.16,2.37,.66,1.28,.82,2.92-.09,4.12-.78,1.03-2.19,1.56-3.34,.79s-1.58-2.25-1.37-3.55c.24-1.48,1.12-2.81,2.08-3.92,.91-1.04,2.05-2.06,3.51-2.11,3.19-.11,4.75,3.36,4.95,6.04,.21,2.84-.34,6.06-2.35,8.22-1.78,1.9-4.77,2.81-7.11,1.38s-3.49-4.48-3.93-7.04,.13-5.52,2.55-6.95c1.87-1.11,4.23-1.14,6.28-.57,4.45,1.24,8.74,6.84,6.11,11.43-1.29,2.26-4.11,3.47-6.65,2.91-2.66-.58-4.84-2.8-5.34-5.48s1.21-5.81,4.26-5.66c1,.05,1-1.51,0-1.56h0Z"/></g></svg>